<svg width="109" height="80" viewBox="0 0 109 80" fill="none" xmlns="http://www.w3.org/2000/svg">
<path d="M73.91 34.3484C67.08 30.3984 59.31 32.5284 59.31 32.5284C56.39 33.2784 54.23 35.9284 54.23 39.0784C54.23 42.8184 57.2601 45.8384 60.9901 45.8384H64.4C64.4 45.8384 63.49 52.0284 69.05 56.7584" stroke="black" stroke-width="2.48" stroke-linecap="round" stroke-linejoin="round"/>
<path d="M74.5 14.4585C72.94 12.0185 71.49 10.1985 69.6 8.08846C65.61 3.61846 58.53 3.78847 54.78 8.46847C51.64 12.3985 48.9 16.1584 46.9 20.0084C45.65 22.5384 46.2101 25.6885 48.4301 27.6285C51.0801 29.9485 55.1101 29.6685 57.4301 27.0185L63.59 19.8585" stroke="black" stroke-width="2.48" stroke-linecap="round" stroke-linejoin="round"/>
<path d="M30.3 31.1384C19.37 31.9584 15.86 30.2185 15.86 25.9285C15.86 21.6385 21.22 18.0884 27.85 18.0884C31.3 18.0884 34.4 19.0584 36.59 20.5984" stroke="black" stroke-width="2.48" stroke-linecap="round" stroke-linejoin="round"/>
<path d="M50.95 13.5084H46.42C43.92 13.5084 41.56 14.6185 39.96 16.5385L32.17 25.9185C29.81 28.6985 29.68 32.4485 32.17 34.9385C34.66 37.4285 44.28 37.5684 48.44 27.6384" stroke="black" stroke-width="2.48" stroke-linecap="round" stroke-linejoin="round"/>
<path d="M67.82 32.2285L81.15 25.6484L89.37 21.5985L97.34 17.6984L105.66 13.5985C106.58 13.1485 107.1 12.1385 106.95 11.1185C106.4 7.26848 104.19 4.13848 102.56 2.55848C101.74 1.76848 100.5 1.58845 99.46 2.08845L89.95 6.80848L82.25 10.6285L74.51 14.4484L63.61 19.8585" stroke="black" stroke-width="2.48" stroke-linecap="round" stroke-linejoin="round"/>
<path d="M54.23 38.8785L40.96 45.4084L25.54 52.9885L8.34003 56.2885L1.29004 57.6285L6.16003 52.9885L16.28 43.2985L32.54 35.2584" stroke="black" stroke-width="2.48" stroke-linecap="round" stroke-linejoin="round"/>
<path d="M89.9301 6.81848C89.9301 6.81848 96.83 9.93843 97.33 17.6984" stroke="black" stroke-width="2.48" stroke-linecap="round" stroke-linejoin="round"/>
<path d="M82.23 10.6384C82.23 10.6384 88.87 13.8585 89.37 21.6185" stroke="black" stroke-width="2.48" stroke-linecap="round" stroke-linejoin="round"/>
<path d="M16.29 43.2985L21.11 45.7684L20.71 50.5184L25.53 52.9885" stroke="black" stroke-width="2.48" stroke-linecap="round" stroke-linejoin="round"/>
<path d="M8.35004 56.2784C8.09004 54.2884 6.15002 52.9885 6.15002 52.9885L1.29004 57.6384L8.35004 56.2885V56.2784Z" fill="black"/>
<path d="M40.95 45.4084C40.95 45.4084 43.77 54.3284 53.97 57.7684C53.97 57.7684 62.13 70.7584 72.58 78.5784" stroke="black" stroke-width="2.48" stroke-linecap="round" stroke-linejoin="round"/>
<path d="M81.15 25.6584C81.15 25.6584 83.26 30.4884 83.47 32.7084C83.47 32.7084 98.15 50.5584 103.96 54.2084" stroke="black" stroke-width="2.48" stroke-linecap="round" stroke-linejoin="round"/>
</svg>
