<svg width="64" height="64" viewBox="0 0 64 64" fill="none" xmlns="http://www.w3.org/2000/svg">
<path d="M28.57 5.20522C28.474 5.30655 28.5647 5.47188 28.9753 5.91988C29.5567 6.56522 29.6847 6.76788 29.8393 7.27455C30.314 8.86922 30.346 9.67455 29.9887 10.8639C29.7113 11.7812 29.77 12.1492 30.2553 12.5386C30.5594 12.7786 30.65 12.7892 30.97 12.6346C31.6474 12.3039 32.506 10.4372 32.6074 9.06655C32.6874 7.98388 32.4527 7.30122 31.738 6.54922C31.082 5.85588 30.2713 5.41855 29.3807 5.27988C28.7087 5.17322 28.6127 5.16255 28.57 5.20522Z" fill="black"/>
<path d="M17.1036 9.85067C17.0343 9.92 17.0663 10.064 17.2156 10.2987C17.4236 10.624 17.4343 10.688 17.4449 11.6C17.4556 12.688 17.3703 13.0933 16.9169 13.9733C16.5863 14.6133 16.5756 14.6453 16.5969 14.96C16.6183 15.2053 16.6716 15.3653 16.8209 15.6267C17.0183 15.9733 17.3329 16.2507 17.4929 16.2187C17.7383 16.1707 18.5489 15.1947 18.8956 14.5227C19.4289 13.4827 19.6849 12.6133 19.6903 11.7867C19.6956 11.36 19.6743 11.2373 19.5676 11.0133C19.3436 10.5387 18.9009 10.1813 18.1649 9.89333C17.9569 9.81333 17.1729 9.78133 17.1036 9.85067Z" fill="black"/>
<path d="M41.8931 10.304C41.8824 10.3413 41.8237 11.008 41.7597 11.7867C41.5091 15.0613 41.5144 15.0293 41.2211 15.744L41.0504 16.1546L41.2051 16.4533C41.3811 16.8106 41.7171 17.12 41.9197 17.12C42.2077 17.12 42.7037 16.624 42.9864 16.0533C43.3224 15.3653 43.5197 14.6293 43.5197 14.064C43.5197 13.0026 42.997 11.3973 42.3784 10.5707C42.1384 10.2507 41.9464 10.144 41.8931 10.304Z" fill="black"/>
<path d="M30.5595 14.3467C30.2609 14.432 30.1755 14.4853 29.9142 14.7627C29.5729 15.1253 29.3595 15.584 29.2795 16.1493C29.2049 16.6773 29.2155 17.7013 29.3329 20.6933C29.3915 22.176 29.4662 24.512 29.4929 25.8933C29.5409 28.064 29.6155 29.712 29.6742 29.8933C29.6849 29.9307 28.5915 29.9467 26.4582 29.9467C23.6262 29.9467 20.3035 30.0267 19.6475 30.112L19.4289 30.1387L19.3915 29.1627C19.3702 28.624 19.3222 27.5733 19.2795 26.8267C19.2369 26.08 19.1889 25.056 19.1729 24.56C19.1035 22.6773 18.8849 20.5067 18.7195 20.0587C18.5115 19.4827 18.1649 19.0187 17.8129 18.832C17.6049 18.7253 17.5889 18.7253 17.1889 18.8107C16.5115 18.96 16.1222 19.312 15.8289 20.0427C15.7275 20.2987 15.7062 20.4373 15.7169 20.9067C15.7275 21.7707 16.1329 25.8347 16.3195 26.9067C16.5435 28.208 16.7515 29.28 16.8635 29.7387L16.9862 30.224L15.5729 30.288C12.2022 30.4427 10.2822 30.6507 9.03955 31.0027C8.21822 31.2373 8.14888 31.4613 8.63422 32.3253L8.91155 32.8053L8.96488 33.696C8.99688 34.1867 9.02355 35.6907 9.02888 37.04L9.03955 39.488L8.73555 39.6427C8.56488 39.728 8.42622 39.824 8.42622 39.8613C8.42622 39.936 8.92222 40.6667 9.01288 40.72C9.09288 40.768 9.07688 42.8213 8.98622 44.72C8.88488 46.8373 8.77822 51.6053 8.81555 52.6133C8.84755 53.5573 8.95955 54.0533 9.26888 54.6293C10.0262 56.032 10.1115 56.16 10.5489 56.4853C10.7142 56.6133 10.8849 56.7573 10.9222 56.8107C11.0875 57.04 11.5569 57.1947 12.3462 57.28C12.6395 57.312 13.4662 57.4347 14.1862 57.5467C16.2822 57.8827 18.1275 58.0907 20.3995 58.2507C21.4022 58.32 24.6449 58.3307 31.1995 58.2987C33.1782 58.288 35.2795 58.2933 35.8662 58.3147C36.4529 58.3307 37.3915 58.3573 37.9462 58.3733C41.6315 58.4747 47.4822 58.7147 51.0022 58.912C51.6582 58.9493 52.7089 58.8693 53.2156 58.7467C53.7596 58.6133 54.1062 58.2667 54.3782 57.6C54.4476 57.4293 54.5596 57.2 54.6342 57.0987C54.7036 56.992 54.7782 56.8053 54.7996 56.6773C54.8209 56.5547 54.8689 56.4 54.9116 56.3413C54.9489 56.2773 55.0449 55.9893 55.1249 55.7013C55.2636 55.1733 55.2636 55.1627 55.3222 52.16C55.4076 48.0107 55.4022 43.76 55.3169 42.6933C55.0716 39.6853 54.7196 37.2587 54.3196 35.8667C54.1436 35.2427 53.8129 34.3467 53.7596 34.3467C53.7329 34.3467 53.6902 34.272 53.6582 34.1813C53.5676 33.9147 53.1409 33.3173 52.8529 33.0453C52.6662 32.8693 52.3675 32.688 51.8715 32.4533C51.1515 32.1067 50.7675 31.984 50.2395 31.92C50.0795 31.8987 49.6315 31.8293 49.2422 31.76C47.9089 31.5147 45.7115 31.2373 43.4449 31.0133L43.0822 30.976L43.1089 29.3973C43.1249 28.3413 43.1835 27.296 43.2742 26.2667C43.5729 22.9227 43.6955 20.192 43.5622 19.8133C43.4662 19.5413 43.1569 19.12 43.0022 19.0453C42.6289 18.864 42.6235 18.864 42.3569 18.9333C41.8182 19.0613 41.4342 19.4187 41.1995 20C41.0662 20.3467 41.0502 21.3387 41.1142 25.3333C41.1729 28.9173 41.1889 29.1467 41.4609 30.2187C41.5355 30.5067 41.5835 30.752 41.5729 30.7627C41.5622 30.7787 40.6289 30.6987 39.5089 30.592C36.8529 30.336 35.2635 30.2133 33.3595 30.1067C32.5115 30.0533 31.8075 30.0107 31.8022 30.0053C31.7969 30 31.8129 29.8187 31.8395 29.6C31.9089 29.0453 32.0369 26.6507 32.1115 24.56C32.1542 23.2853 32.1542 21.7973 32.1169 19.1733C32.0635 15.1893 32.0689 15.3013 31.7222 14.7253C31.4289 14.2453 31.1995 14.1707 30.5595 14.3467ZM36.9862 32.7413C38.1382 32.8 41.9835 32.9387 43.8129 32.9867C45.2689 33.024 47.5409 33.104 48.5009 33.152L49.1835 33.1893L49.3435 33.5413C49.4289 33.7333 49.6315 34.1707 49.7915 34.5067C50.1169 35.2 50.2875 35.8187 50.4475 36.8693C50.6129 37.952 50.6555 37.824 49.9409 38.432C49.1462 39.104 49.1302 39.12 48.4689 39.4667C48.1062 39.6587 47.8822 39.6693 47.2795 39.5253C46.7142 39.3867 46.2502 39.184 45.3862 38.6933C42.8955 37.2693 41.9729 37.0133 40.2822 37.2587C38.8902 37.456 37.9302 37.7653 36.2449 38.544C35.8289 38.736 35.2155 38.9973 34.8795 39.1307L34.2662 39.376L33.8822 39.312C33.2955 39.2267 32.6982 39.008 32.0635 38.6507C31.3489 38.256 30.0529 37.6 29.6102 37.4187C28.6502 37.0133 27.4555 36.9333 25.9729 37.168C24.7409 37.36 24.2769 37.4773 21.9195 38.1653C21.1035 38.4053 20.9969 38.4267 20.4795 38.4213C19.9995 38.4213 19.8502 38.3947 19.4395 38.256C19.1729 38.1653 18.7782 38.0053 18.5595 37.904C17.5835 37.4507 16.5595 37.1733 15.8395 37.1733C15.0235 37.1733 13.1942 37.5307 12.1489 37.8933L11.7862 38.016V37.7547C11.7862 37.6107 11.7649 37.392 11.7329 37.2693C11.7062 37.1413 11.6475 36.5227 11.5995 35.888C11.5569 35.2533 11.4715 34.368 11.4129 33.9147C11.3542 33.4667 11.3222 33.0827 11.3489 33.056C11.3702 33.0347 12.7889 32.992 14.5062 32.96C16.2235 32.928 18.3355 32.88 19.1995 32.8533C20.0635 32.8267 21.5409 32.7787 22.4795 32.7467C23.4182 32.7147 24.4049 32.6827 24.6662 32.672C25.7542 32.6347 36.0475 32.6933 36.9862 32.7413ZM41.5729 40.5333C42.2342 40.6133 42.9702 40.8747 44.0582 41.4187C45.9462 42.3627 46.6769 42.6133 47.5355 42.6133C47.8182 42.6133 48.1009 42.592 48.1702 42.5653C48.2395 42.5387 48.4955 42.4533 48.7462 42.3787C49.3115 42.208 49.9569 41.84 50.5009 41.376L50.9222 41.0187L50.9542 41.3227C51.1462 43.072 51.1675 43.7707 51.1729 48.64C51.1782 51.3227 51.1995 53.648 51.2209 53.808L51.2635 54.096L50.4742 54.0587C47.5409 53.936 38.6929 53.76 35.2262 53.76C32.0795 53.76 30.8955 53.792 27.8129 53.9733C22.2609 54.2987 19.6209 54.256 15.1729 53.7813C14.4689 53.7067 13.4875 53.6267 12.9969 53.6107C11.9249 53.5627 12.0209 53.632 11.7382 52.7413C11.6635 52.5013 11.6582 50.672 11.7329 49.12C11.7595 48.4907 11.8075 47.1307 11.8395 46.1067C11.8715 45.0773 11.9089 43.744 11.9302 43.1307L11.9622 42.0267H12.4742C12.9115 42.0267 13.0982 41.9947 13.7115 41.8187C15.0395 41.44 15.6155 41.4133 16.4689 41.68C16.8369 41.7973 17.8342 42.2293 18.5862 42.6027C19.1675 42.8907 19.5035 42.96 20.3462 42.96C21.3542 42.96 21.7329 42.88 23.5995 42.2613C25.9355 41.4933 27.1835 41.2213 27.9995 41.3067C28.9062 41.3973 29.6155 41.6427 31.5462 42.5333C32.3035 42.88 32.8742 43.008 33.6795 43.008C34.2769 43.0027 34.4422 42.9813 34.8529 42.8587C35.1195 42.7787 35.4822 42.6453 35.6689 42.5547C35.8502 42.4693 36.0102 42.4 36.0262 42.4C36.0369 42.4 36.6822 42.0907 37.4502 41.712C39.3115 40.8053 39.8502 40.608 40.7462 40.5173C40.8475 40.5067 40.9702 40.496 41.0129 40.4907C41.0555 40.4853 41.3062 40.5067 41.5729 40.5333Z" fill="black"/>
</svg>
