<svg width="64" height="64" viewBox="0 0 64 64" fill="none" xmlns="http://www.w3.org/2000/svg">
<path d="M50.5866 5.5308C49.1146 5.7228 48.5546 5.82946 47.2533 6.16546C43.744 7.0828 41.1306 8.6028 38.2346 11.3975C36.0586 13.5041 34.4266 15.6161 33.344 17.7441C33.2053 18.0161 33.0826 18.2401 33.0666 18.2401C33.0506 18.2401 32.9813 18.0801 32.912 17.8775C32.7253 17.3708 32.064 16.0695 31.6533 15.4188C29.8026 12.4801 27.8613 10.5228 25.28 8.97613C24.5333 8.52813 22.6506 7.58946 21.84 7.26413C20.704 6.80546 19.392 6.4268 18.3306 6.25613C17.456 6.11213 15.552 6.12813 14.56 6.2828C13.7493 6.4108 12.1813 6.80013 11.5466 7.02413C10.5119 7.39746 9.58395 7.97346 8.85328 8.6988C6.91728 10.6188 5.13595 15.4881 4.79995 19.7548C4.62395 22.0161 4.87995 24.4908 5.63728 27.7068C6.51195 31.4561 7.51462 34.0215 9.50928 37.6001C12.4319 42.8481 15.888 47.1095 19.76 50.2241C21.0773 51.2801 22.7626 52.5121 24.2933 53.5308C25.3013 54.1975 25.8506 54.5495 29.44 56.7841C31.9893 58.3735 32.8853 58.9175 33.872 59.4828C34.0053 59.5575 34.3093 59.6908 34.5386 59.7708C34.9226 59.9041 35.0293 59.9148 35.7066 59.9148C36.928 59.9095 37.6 59.6641 37.856 59.1308C37.968 58.8961 38.0106 58.8641 38.576 58.5815C39.84 57.9468 41.04 57.1575 41.8826 56.4001C42.9173 55.4775 46.9706 51.2908 48.6186 49.4401C49.248 48.7361 50.1386 47.7015 50.7786 46.9335C52.656 44.6668 54.5493 41.8721 56.1546 38.9868C56.8053 37.8295 58.1386 35.1201 58.576 34.0801C59.3333 32.2935 60.128 29.9948 60.5866 28.2935C61.6053 24.4855 61.9733 21.5468 61.904 17.7868C61.8186 13.2428 61.0666 10.7148 59.216 8.7468C58.4106 7.89346 57.6373 7.32813 56.4426 6.72013C54.5813 5.7708 53.472 5.48813 51.68 5.50413C51.168 5.50413 50.6773 5.52013 50.5866 5.5308ZM52.9493 9.84546C54.064 10.0108 55.2693 10.4588 56.1706 11.0561C56.592 11.3335 57.1306 11.8348 57.4986 12.2935C57.936 12.8428 58.2933 14.1121 58.5173 15.9468C58.608 16.6881 58.608 19.6001 58.5173 20.4535C58.176 23.6161 57.4453 26.5708 56.1866 29.8401C54.6026 33.9628 52.0213 38.3575 49.12 41.8668C47.4666 43.8668 46.2346 45.2161 42.4266 49.1735C39.76 51.9468 39.2906 52.4428 38.88 52.9335C38.432 53.4721 37.648 54.5708 37.1626 55.3335L36.7946 55.9255L36.4106 55.5468C36.08 55.2268 35.856 55.0775 34.8533 54.5228C33.264 53.6481 32.0746 53.0028 30.4266 52.1335C27.4026 50.5335 26.1866 49.8508 24.816 48.9708C22.4586 47.4668 20.6933 46.0695 18.7786 44.1868C14.3626 39.8455 11.5253 35.6695 9.73328 30.8535C8.87462 28.5441 8.07462 25.3815 7.78128 23.1201C7.62662 21.9308 7.61062 20.0055 7.75462 18.9601C8.33062 14.6828 9.72262 12.0268 11.9733 10.9068C13.3013 10.2455 14.7946 9.98946 16.7733 10.0908C20.1546 10.2508 24.8373 12.1335 27.5466 14.4161C28.5386 15.2535 29.9946 16.8375 30.9653 18.1441C31.4293 18.7681 32.1653 19.9415 32.3413 20.3361C32.4106 20.4961 32.496 20.6455 32.528 20.6615C32.56 20.6828 32.736 20.9228 32.9173 21.1895C33.4933 22.0535 33.5786 22.0961 33.7973 21.6108C33.9093 21.3548 33.9253 21.2588 33.8986 21.0135C33.8773 20.8535 33.856 20.6668 33.8506 20.6028C33.8453 20.5175 33.9466 20.4001 34.2453 20.1495C34.4693 19.9628 35.12 19.3655 35.6853 18.8215C38.7946 15.8455 41.952 13.3495 44.2666 12.0428C46.3413 10.8641 48.4693 10.0855 50.24 9.84546C51.008 9.74413 52.2613 9.7388 52.9493 9.84546Z" fill="black"/>
</svg>
