<svg width="64" height="64" viewBox="0 0 64 64" fill="none" xmlns="http://www.w3.org/2000/svg">
<path d="M33.2375 4.90664C33.0828 4.92797 32.8908 4.97064 32.8108 5.00264C32.7308 5.03464 32.5495 5.08264 32.4055 5.11997C32.0002 5.21064 31.7868 5.34397 31.3868 5.77064C30.1975 7.00797 28.6775 9.6053 27.2375 12.8586C26.7895 13.872 26.0748 15.568 24.1228 20.2933L23.5895 21.5733H22.7948C22.3575 21.5733 20.5228 21.536 18.7202 21.4933C12.9495 21.3546 11.1308 21.3813 10.0802 21.6266C8.68818 21.9573 8.44818 22.0746 8.21884 22.5333C7.88284 23.2106 8.04818 23.8826 8.96551 25.5466C9.86684 27.1786 10.8162 28.1493 16.7575 33.504C17.6268 34.288 18.3522 34.9493 18.3682 34.976C18.3842 35.0026 18.2028 35.584 17.9682 36.272C16.9228 39.328 16.5335 40.608 15.2748 45.1733C13.7602 50.64 13.6428 51.2 13.6322 52.672L13.6268 53.5306L13.8562 53.9786C13.9842 54.224 14.1388 54.464 14.1975 54.512C14.3042 54.592 14.2988 54.6026 14.0695 54.9653C13.5415 55.7973 12.8002 57.056 12.8002 57.1253C12.8055 57.5413 13.8935 57.7386 14.9602 57.52C16.4908 57.2 18.6935 56.2026 20.0908 55.1893C20.5388 54.8693 22.0108 53.6853 25.9788 50.4533C28.3148 48.5493 30.9388 46.4266 30.9548 46.4266C30.9602 46.4266 31.5255 46.944 32.2135 47.5733C33.6322 48.8853 33.8935 49.12 35.4988 50.5866C36.1388 51.168 37.2268 52.176 37.9148 52.8266C40.2508 55.0186 41.2002 55.8506 42.5388 56.8586C43.2855 57.4186 43.6322 57.6266 44.0535 57.7706C44.3468 57.872 44.4108 57.8773 44.6295 57.8186C45.1202 57.6906 45.4402 57.3653 45.6588 56.8C45.7122 56.6613 45.8135 56.4586 45.8828 56.352C45.9575 56.2506 46.0322 56.0746 46.0535 55.9626C46.0748 55.8506 46.1122 55.7333 46.1388 55.7013C46.1602 55.6693 46.2455 55.4186 46.3255 55.1413C46.6348 54.048 46.5282 51.5146 46.0002 47.4666C45.7015 45.168 45.0935 41.8666 44.1548 37.392C44.0108 36.704 43.8935 36.096 43.8935 36.048C43.8935 35.9573 44.4695 35.5253 46.6935 33.9306C47.1948 33.5733 47.8028 33.1306 48.0535 32.9546C49.6908 31.7706 50.9175 30.9013 52.5068 29.7866C55.1255 27.952 55.4242 27.6906 55.8722 26.8C56.3468 25.8666 56.5495 25.136 56.5228 24.4426C56.5015 23.7653 56.4162 23.664 55.4615 23.184C54.6188 22.7626 53.8082 22.5333 52.5068 22.352C51.2108 22.1706 50.5228 22.1386 46.4535 22.0533C44.3255 22.0053 42.1228 21.952 41.5522 21.9306L40.5175 21.8933L40.0162 19.9733C38.5762 14.432 37.8722 12.0533 36.8162 9.1733C35.9148 6.71997 35.1575 5.35997 34.5762 5.1733C34.4748 5.13597 34.3042 5.05064 34.1975 4.9813C34.0002 4.84264 33.7815 4.82664 33.2375 4.90664ZM33.8562 8.6293C34.5602 10.4266 35.4348 13.44 36.1868 16.6933C36.5015 18.048 37.3335 21.7706 37.3335 21.8293C37.3335 21.8613 36.4055 21.872 34.6828 21.8453C31.1628 21.7973 26.3788 21.7013 26.3522 21.6746C26.3415 21.664 26.4215 21.456 26.5335 21.216C26.6402 20.9706 27.3548 19.376 28.1122 17.6693C28.8695 15.9626 29.6802 14.176 29.9095 13.696C30.6348 12.1866 31.5468 10.5706 32.4055 9.27997C32.8535 8.5973 33.4668 7.87197 33.5468 7.91997C33.5735 7.93597 33.7122 8.25597 33.8562 8.6293ZM18.0002 24.6933C21.3015 24.7573 22.2508 24.8 22.2188 24.8746C22.0908 25.1573 20.9228 28.16 20.5015 29.2906C20.2135 30.0746 19.9575 30.72 19.9415 30.72C19.9255 30.72 19.6855 30.512 19.4082 30.256C18.2455 29.184 15.6482 26.864 14.4482 25.8293L13.1628 24.72L13.5522 24.688C14.2082 24.64 15.3122 24.64 18.0002 24.6933ZM26.1975 25.04C26.8535 25.088 28.5175 25.2213 29.8935 25.3386C33.6802 25.6586 35.5788 25.8026 36.9335 25.872C37.6695 25.9093 38.1868 25.9573 38.2188 25.9946C38.2828 26.0533 38.4322 26.7573 39.4135 31.5733L39.9255 34.1013L39.3442 34.4746C37.6535 35.5413 34.4535 37.7173 31.8775 39.5413C31.1415 40.064 30.5068 40.5066 30.4695 40.5173C30.4322 40.5333 29.8882 40.0586 29.2642 39.4613C27.9202 38.1706 26.5122 36.848 23.7602 34.2933C22.6455 33.2586 21.7388 32.3893 21.7495 32.352C21.7602 32.32 22.0055 31.6693 22.3042 30.9066C23.0828 28.9013 23.8402 27.0933 24.6935 25.2106C24.7682 25.04 24.8375 24.96 24.9068 24.96C24.9655 24.96 25.5468 24.9973 26.1975 25.04ZM44.2135 26.2666C45.1948 26.3093 46.7095 26.368 47.5735 26.4C50.8055 26.5173 51.5842 26.5546 51.6055 26.576C51.6535 26.6186 49.2588 28.256 47.1468 29.6266C45.9788 30.3786 43.0988 32.16 43.0455 32.16C43.0295 32.16 42.9442 31.856 42.8642 31.4773C42.6562 30.5493 41.6535 26.2933 41.6162 26.1973C41.5895 26.1333 41.6482 26.128 42.0055 26.1546C42.2348 26.176 43.2322 26.224 44.2135 26.2666ZM22.3948 38.608C24.3042 40.3253 25.9308 41.808 26.8162 42.6293C26.9762 42.7733 27.0828 42.912 27.0562 42.928C26.0642 43.6106 24.6402 44.64 23.7335 45.3226C21.3655 47.1146 18.1175 49.8613 17.0722 50.9653C16.6562 51.408 15.6962 52.5706 15.3495 53.0666C15.2535 53.1946 15.2535 53.1893 15.2855 52.8C15.3335 52.2133 15.5042 51.248 15.6588 50.6666C15.8295 50.0373 17.5895 44.1546 18.0535 42.6666C18.8748 40.0373 20.0962 36.5706 20.1815 36.624C20.2082 36.6453 21.2055 37.536 22.3948 38.608ZM40.8002 38.4C40.8002 38.432 40.9442 39.2053 41.1202 40.1173C42.0642 45.0133 42.4428 47.632 42.7362 51.3173L42.8055 52.1546L41.0402 50.4106C40.0748 49.4506 38.7628 48.1973 38.1335 47.6266C36.9762 46.5813 34.9868 44.768 34.3522 44.176L34.0108 43.8613L35.0402 42.9866C37.3228 41.0453 40.6402 38.3466 40.7468 38.3466C40.7788 38.3466 40.8002 38.3733 40.8002 38.4Z" fill="black"/>
</svg>
