<svg width="64" height="64" viewBox="0 0 64 64" fill="none" xmlns="http://www.w3.org/2000/svg">
<path d="M32.4796 4.16532C31.9462 4.24532 31.6102 4.38399 31.5249 4.55465C31.4289 4.75199 31.3756 5.78665 31.3276 8.07999C31.2902 10.208 31.3009 10.3307 31.8662 13.1467C32.0529 14.0853 32.2236 14.9813 32.2396 15.136C32.2609 15.2853 32.3196 15.4667 32.3729 15.5307L32.4689 15.6533L32.6556 15.456C33.2582 14.816 33.9942 12.176 34.1916 9.97332C34.2556 9.23199 34.2129 8.12799 34.0529 6.41599C33.8929 4.69865 33.7756 4.31999 33.3969 4.31999C33.3436 4.31999 33.2529 4.27199 33.1996 4.21332C33.0929 4.09599 32.9702 4.09065 32.4796 4.16532Z" fill="black"/>
<path d="M9.18356 8.74164C8.59156 8.89098 8.55423 9.11498 8.97023 9.92031C9.31156 10.5763 9.47156 10.7576 11.7809 13.099C13.5569 14.9016 14.3836 15.6323 15.7596 16.6243C16.4743 17.1416 17.2156 17.499 17.4129 17.419C17.5409 17.371 17.5089 17.259 17.2049 16.7096C17.0503 16.4216 16.7676 15.9096 16.5863 15.5736C15.7969 14.1283 14.8262 12.7416 14.1062 12.0323C13.0129 10.955 10.7676 9.05631 10.2822 8.80031C9.93023 8.61898 9.71156 8.60298 9.18356 8.74164Z" fill="black"/>
<path d="M54.08 9.54133C53.5894 9.66933 53.3974 9.78133 52.4427 10.496C49.856 12.432 48.96 13.5253 47.6854 16.2986C47.2587 17.2213 46.6134 18.8213 46.6134 18.944C46.6134 18.992 46.6507 19.072 46.6987 19.1146C46.7734 19.1893 46.8107 19.184 47.1094 19.0346C47.7867 18.6933 48.8694 17.8986 49.9414 16.9546C50.8214 16.1813 51.36 15.6106 51.92 14.8533C52.1814 14.5013 52.6934 13.8453 53.0614 13.392C53.936 12.304 54.3467 11.6907 54.7361 10.8907C55.0027 10.3413 55.0561 10.1813 55.0614 9.936C55.0667 9.65867 55.0561 9.632 54.9067 9.54133C54.7094 9.424 54.5227 9.424 54.08 9.54133Z" fill="black"/>
<path d="M28.5333 17.9038C27.984 17.9358 26.784 18.1384 26.0427 18.3198C22.9227 19.0878 20.4 20.7197 18.56 23.1731C16.7787 25.5517 15.7333 28.7464 15.7333 31.8291C15.7333 33.3384 15.952 34.6877 16.448 36.1757C16.8 37.2424 17.1573 38.0317 17.8613 39.3064C19.1893 41.701 20.384 43.173 22.1333 44.5704C23.2427 45.461 24.0587 45.9944 25.0613 46.4957C26.1067 47.0184 26.9813 47.3437 28.1067 47.621C29.3813 47.9357 30.2773 48.053 31.632 48.0904C34.16 48.1544 36.1227 47.7224 38.4267 46.5864C41.2 45.221 43.5147 43.2157 44.88 41.0077C45.3813 40.2024 46.144 38.597 46.5013 37.5997C46.864 36.5917 47.2533 35.0931 47.3867 34.2184C47.664 32.3357 47.6107 29.9784 47.248 28.3517C46.5813 25.3277 44.6133 22.5384 41.8667 20.7197C41.2 20.2771 39.6053 19.4451 38.8373 19.1411C37.36 18.5491 35.776 18.2824 33.76 18.2824C32.656 18.2824 31.76 18.3678 30.9387 18.5544C30.736 18.5971 30.72 18.5971 30.72 18.4851C30.72 18.2131 30.288 17.9838 29.664 17.9144C29.2107 17.8718 29.1253 17.8664 28.5333 17.9038ZM28.5333 19.5731C28.432 19.6584 28.3307 19.7277 28.3093 19.7331C28.2347 19.7331 28.2667 19.9197 28.3627 20.0317C28.4427 20.1331 28.528 20.1491 29.0667 20.1811C30.7413 20.2717 32.3413 20.8157 36.1493 22.5811C36.992 22.9757 37.8613 23.3704 38.08 23.4611C39.328 23.9944 40.56 24.7837 41.344 25.5624C42.3253 26.5437 42.9013 27.3117 43.168 28.0211C43.6107 29.1731 43.7333 29.8557 43.7707 31.2637C43.8293 33.3704 43.4827 35.0984 42.6667 36.789C41.728 38.7357 40.1173 40.4637 37.8667 41.9304C36.4533 42.8477 34.6453 43.6584 33.6 43.845C33.0933 43.9304 31.3013 43.9357 30.5867 43.845C28.7733 43.621 26.8 43.0397 25.5467 42.3624C23.6107 41.3117 21.536 39.4184 20.2933 37.5677C18.3627 34.6877 17.8187 31.2211 18.7467 27.6531C19.008 26.6504 19.3387 25.9091 19.9307 25.0131C21.4293 22.7411 23.8133 20.9331 26.5867 19.9624C26.976 19.8237 28.5013 19.4184 28.64 19.4131C28.6827 19.4131 28.6347 19.4824 28.5333 19.5731Z" fill="black"/>
<path d="M55.6801 29.7923C54.0214 30.0163 52.656 30.2883 51.44 30.635C50.5867 30.8803 50.5067 30.9123 50.5067 31.0297C50.5067 31.1897 50.6454 31.3337 51.104 31.6377C52.304 32.443 54.1067 33.275 55.3067 33.5843C56.3041 33.8403 57.7707 33.723 59.1467 33.2697C59.8881 33.0297 60.1974 32.795 60.3894 32.3203C60.4428 32.187 60.5281 32.0057 60.5708 31.9203C60.6188 31.8297 60.6668 31.6057 60.6774 31.4137C60.7148 30.9283 60.6028 30.779 59.9574 30.443C59.3974 30.1497 58.9281 30.0163 57.9894 29.899C57.3014 29.8137 55.9947 29.755 55.6801 29.7923Z" fill="black"/>
<path d="M8.47979 30.7999C8.43712 30.8105 7.91979 30.8479 7.32779 30.8799C6.31979 30.9332 5.78645 31.0025 5.22645 31.1465C5.09312 31.1839 4.89579 31.2319 4.78912 31.2585C4.62912 31.3012 4.56512 31.3545 4.47445 31.5252C4.33045 31.8132 4.37312 32.0532 4.65045 32.5812C4.76779 32.8052 4.92245 33.0985 4.99179 33.2372C5.06112 33.3759 5.17845 33.5305 5.25312 33.5839C5.33312 33.6372 5.49845 33.7652 5.62645 33.8719C5.98912 34.1759 6.69845 34.2986 8.13312 34.3039C9.12512 34.3092 9.40245 34.2506 10.4211 33.8505C11.4291 33.4559 13.8291 32.0959 13.8931 31.8879C13.9465 31.7332 13.8185 31.6159 13.3918 31.4185C12.5865 31.0452 11.2638 30.8265 9.67979 30.7999C9.06645 30.7892 8.52245 30.7892 8.47979 30.7999Z" fill="black"/>
<path d="M17.0398 44.9014C16.1598 45.1574 15.1785 45.8027 13.8131 47.0347C12.7092 48.0267 11.8345 48.9814 11.2958 49.7761C11.1732 49.9574 10.7465 50.5387 10.3465 51.0667C9.3545 52.3787 9.29583 52.5814 9.70116 53.3814C10.1385 54.2454 10.3145 54.4907 10.6825 54.768C10.9118 54.9387 11.0985 55.04 11.1892 55.04C11.8345 55.0347 13.4985 53.5734 14.3518 52.272C14.9811 51.312 15.6371 49.9681 16.7198 47.4134C17.0451 46.6347 17.4185 45.8294 17.5465 45.6267C17.9305 45.0027 17.9411 44.9814 17.9038 44.8907C17.8611 44.7734 17.4718 44.7734 17.0398 44.9014Z" fill="black"/>
<path d="M46.4692 45.6372C46.3412 45.6852 46.3999 45.8452 46.7626 46.4585C47.8986 48.3572 50.0106 51.4772 50.8639 52.5225C51.5839 53.3972 53.0079 54.7945 53.7546 55.3545C54.3626 55.8079 54.4372 55.8505 54.6026 55.8185C54.7039 55.8025 54.8372 55.7545 54.9066 55.7119C55.0506 55.6159 55.4932 54.7519 55.4399 54.6665C55.4185 54.6345 55.4612 54.5172 55.5359 54.4105C55.7065 54.1652 55.8079 53.5252 55.7439 53.1625C55.6479 52.6612 53.7172 50.0852 52.9172 49.3972C51.3332 48.0372 48.7039 46.4052 47.0826 45.7812C46.6026 45.5945 46.5812 45.5892 46.4692 45.6372Z" fill="black"/>
<path d="M32.197 48.6241C32.1277 48.7361 31.6157 51.5254 31.445 52.6934C31.2477 54.0641 31.189 54.8748 31.2263 55.6268C31.3383 57.8348 31.3703 58.3094 31.445 58.7094C31.5357 59.2268 31.557 59.2694 31.941 59.9681C32.165 60.3681 32.2983 60.5494 32.5063 60.7041C32.6503 60.8214 32.7837 60.9388 32.789 60.9654C32.821 61.0508 33.125 61.0134 33.2797 60.9068C33.509 60.7414 33.893 59.8988 34.1117 59.0721C34.325 58.2828 34.405 57.5094 34.437 56.0001C34.469 54.2348 34.3837 53.5841 33.8397 51.6001C33.3863 49.9414 32.7143 48.5867 32.3463 48.5867C32.277 48.5867 32.2077 48.6027 32.197 48.6241Z" fill="black"/>
</svg>
