<svg width="64" height="64" viewBox="0 0 64 64" fill="none" xmlns="http://www.w3.org/2000/svg">
<path d="M11.1197 9.20486C11.061 9.21553 10.8797 9.25286 10.7197 9.28486C10.2183 9.38086 9.99433 9.51953 9.88767 9.7862C9.82367 9.95686 9.80767 10.1009 9.83433 10.2769C9.85033 10.4209 9.96233 11.3702 10.0797 12.3995C10.3783 15.0822 10.4317 15.7915 10.581 19.5462C10.5917 19.8075 10.5757 22.3302 10.549 25.1462C10.4903 30.6609 10.501 30.9595 10.7517 31.8289C10.8903 32.3035 11.477 33.4875 11.8397 34.0262C12.325 34.7355 13.077 35.3542 19.013 39.9302C19.893 40.6129 20.8637 41.3649 21.173 41.6049C22.8583 42.9275 24.741 44.3782 26.133 45.4395C30.3943 48.6715 31.4183 49.4662 35.0397 52.3195C40.581 56.6875 42.741 58.2555 44.485 59.1622C45.6263 59.7595 46.709 60.0955 47.2903 60.0369C47.9623 59.9675 48.4157 59.5835 49.0397 58.5542C49.6637 57.5249 50.693 55.8769 51.589 54.4795C52.0583 53.7435 53.013 52.2075 53.7063 51.0662C55.5677 47.9942 57.0077 45.7062 58.1597 43.9995C59.957 41.3329 60.741 40.0155 61.765 37.9729C62.7357 36.0315 63.0983 34.8902 63.109 33.7809C63.109 33.1835 63.0983 33.1089 62.9703 32.8475C62.8957 32.6875 62.741 32.4742 62.629 32.3675C62.517 32.2609 61.7703 31.6902 60.965 31.0982C60.1597 30.5009 58.277 29.0395 56.7783 27.8449C53.9303 25.5782 53.0877 24.9275 50.3997 22.9062C48.3303 21.3542 46.9383 20.2822 44.6397 18.4795C41.397 15.9355 40.085 14.9649 38.5437 13.9782C35.957 12.3142 33.9997 11.4075 31.0077 10.4795C30.3517 10.2769 28.5223 9.7702 28.069 9.66886C27.893 9.6262 27.909 9.82353 28.1063 10.1169L28.2663 10.3569L28.1223 10.3249C27.6157 10.2342 26.3783 10.1595 23.573 10.0529C20.7463 9.9462 19.2637 9.83953 16.3197 9.51953C14.1757 9.28486 13.3757 9.22086 12.293 9.19953C11.7063 9.18886 11.1783 9.18886 11.1197 9.20486ZM14.533 10.6929C18.9063 11.0342 19.541 11.0555 24.1597 11.0182C26.7197 10.9969 28.3463 11.0022 28.6237 11.0342L29.061 11.0875L29.573 11.4982C31.3543 12.9115 33.733 14.5542 35.493 15.5729C38.853 17.5249 40.8637 18.9382 45.7863 22.7995C47.8717 24.4315 48.9543 25.2795 50.933 26.8049C51.7703 27.4502 53.5463 28.8315 54.8797 29.8715C57.7063 32.0689 58.373 32.5809 59.3863 33.3222C59.797 33.6209 60.1757 33.8982 60.229 33.9409C60.3143 34.0049 60.3143 34.0262 60.2397 34.2449C60.1117 34.5969 59.7597 35.2689 59.013 36.5862C57.9197 38.5169 57.285 39.4769 55.9623 41.1995C54.357 43.3009 53.205 45.0662 51.125 48.6075C50.5863 49.5195 49.717 50.9862 49.189 51.8662C48.661 52.7462 47.8983 54.0369 47.493 54.7302C47.093 55.4289 46.7357 55.9995 46.7037 55.9995C46.6183 55.9995 45.6957 55.4929 45.1463 55.1462C44.149 54.5115 41.6583 52.6769 38.9597 50.5862C35.8503 48.1809 31.7277 45.1249 27.157 41.8342C26.181 41.1355 24.709 40.0742 23.877 39.4769C23.0503 38.8795 22.0263 38.1489 21.5997 37.8555C19.589 36.4582 17.861 35.2262 16.7143 34.3675C14.1703 32.4635 13.6797 31.9515 13.3917 30.8795C13.253 30.3569 13.2423 30.2395 13.1197 27.9462C13.013 25.9409 12.7037 21.7275 12.5543 20.2662C12.4423 19.1569 12.085 16.4262 11.8877 15.1462C11.7277 14.1222 11.269 11.6529 11.1197 10.9969C11.077 10.8102 11.0397 10.6342 11.0397 10.6022C11.0397 10.5275 13.1143 10.5809 14.533 10.6929Z" fill="black"/>
<path d="M20.5866 15.813C19.9839 15.925 19.2159 16.149 18.9493 16.2876C18.4266 16.5543 17.9786 17.061 17.7119 17.701C17.6213 17.909 17.5733 18.1756 17.5359 18.6343C17.5093 18.9916 17.4773 19.4236 17.4613 19.5996C17.4079 20.1756 17.6159 20.805 18.1386 21.6316C18.4746 22.1596 19.2266 22.7836 19.8719 23.0716C20.6293 23.4076 21.6426 23.509 22.48 23.333C23.4293 23.1356 24.2026 22.549 24.6506 21.6796C25.1253 20.7623 25.28 20.1863 25.2853 19.3596C25.2906 18.709 25.1946 18.2823 24.944 17.8663C24.72 17.4823 24.2613 16.965 23.936 16.7196C23.5573 16.4316 22.448 15.8823 22.0693 15.7916C21.7493 15.717 21.0293 15.7276 20.5866 15.813ZM21.824 18.9916C22.16 19.061 22.928 19.4076 23.0346 19.5356C23.088 19.5996 23.0986 19.701 23.072 19.8716C22.9813 20.565 22.2186 21.2903 21.44 21.4396C21.0986 21.5036 20.464 21.429 19.9999 21.269C19.3866 21.0503 18.7893 20.357 18.6879 19.7436C18.6559 19.541 18.6666 19.525 18.8586 19.3916C19.3173 19.0876 19.9679 18.9543 21.0506 18.9383C21.3226 18.9383 21.6693 18.9596 21.824 18.9916Z" fill="black"/>
</svg>
