<svg width="64" height="64" viewBox="0 0 64 64" fill="none" xmlns="http://www.w3.org/2000/svg">
<path d="M25.0402 6.59783C22.7096 6.67783 20.0696 7.21116 17.6002 8.1125C16.8589 8.37916 16.8109 8.40583 16.4269 8.75783C16.2082 8.96583 15.7549 9.33383 15.4242 9.58983C15.0349 9.88316 14.8322 10.0698 14.8482 10.1178C14.8696 10.1658 14.8162 10.2298 14.7149 10.2832C14.6242 10.3312 14.2456 10.5765 13.8722 10.8218C11.3762 12.4698 9.44025 14.6618 8.13358 17.3072C6.99759 19.6112 6.49625 21.6058 6.41625 24.1605C6.29892 28.0538 7.38692 31.6538 9.92558 35.7392C12.0056 39.0832 15.4989 42.2512 19.2269 44.1658C24.0429 46.6405 29.1416 47.2378 34.2136 45.9205C36.1869 45.4085 37.9095 44.6832 39.5362 43.6805C39.8829 43.4672 40.1869 43.3125 40.2082 43.3392C40.2295 43.3658 40.3789 43.5525 40.5442 43.7605C40.9229 44.2352 42.1975 45.4832 44.0002 47.1472C46.0909 49.0778 47.6802 50.5658 49.4135 52.2138C51.6482 54.3418 52.3575 54.9978 52.7469 55.3072C52.9389 55.4565 53.2429 55.6965 53.4295 55.8458C53.9522 56.2672 54.1922 56.3845 54.5495 56.3898C55.2162 56.3952 55.7549 56.0858 55.9949 55.5578C56.3895 54.6885 56.4269 54.5072 56.4269 53.5205C56.4269 52.3365 56.2562 51.7285 55.7495 51.1418C55.5202 50.8752 54.2509 49.6218 52.9869 48.4218C51.4722 46.9765 48.0429 44.0165 45.5469 42.0005C44.5015 41.1578 43.6695 40.4592 43.5575 40.3365C43.4775 40.2405 43.4722 40.2192 43.5415 40.1658C43.6695 40.0592 44.3682 39.0832 44.7629 38.4645C45.3815 37.4938 46.3842 35.4192 46.8162 34.2138C47.6269 31.9578 47.9949 30.2138 48.1122 28.0378C48.2722 25.0405 47.7869 22.2298 46.6615 19.6858C45.0935 16.1498 42.1815 12.8272 38.6669 10.5765C37.0455 9.5365 34.9816 8.51783 33.2002 7.88316C31.8509 7.39783 30.0216 6.97116 28.4802 6.7685C27.7816 6.68316 25.6909 6.53916 25.5202 6.57116C25.4936 6.5765 25.2749 6.58716 25.0402 6.59783ZM27.3709 10.3258C30.3842 10.6352 33.3069 11.6325 36.0482 13.2752C38.0855 14.5018 39.5522 15.8138 41.0935 17.7872C42.2669 19.2858 42.8642 20.4165 43.4615 22.2618C44.6829 26.0218 44.5015 30.0218 42.9495 33.5205C41.9415 35.7872 40.0535 38.1072 37.9202 39.6965C36.6829 40.6192 35.4136 41.3338 34.0802 41.8672C32.3096 42.5712 31.2642 42.7472 28.9069 42.7418C27.6429 42.7418 27.2376 42.7205 26.4802 42.6192C22.5762 42.1018 19.4349 40.8645 16.5336 38.7045C14.9016 37.4885 13.2216 35.7818 12.1069 34.1978C9.76025 30.8698 8.47492 26.8805 8.60292 23.3605C8.70425 20.7578 9.38692 18.5445 10.7149 16.5178C11.8242 14.8378 13.1096 13.4885 14.7416 12.2992C15.5202 11.7285 15.6696 11.6485 15.7122 11.7552C15.7336 11.8192 15.7922 11.8138 16.0696 11.7285C16.5016 11.5952 17.3656 11.4352 17.8669 11.3872C18.0856 11.3658 18.5282 11.2698 18.8536 11.1632C20.0376 10.7898 21.6536 10.4698 23.1202 10.3205C24.1336 10.2192 26.3842 10.2245 27.3709 10.3258Z" fill="black"/>
<path d="M27.7712 13.2595C27.7552 13.2809 27.6699 13.3022 27.5899 13.3129C27.2219 13.3555 26.7419 13.4995 26.6779 13.5849C26.5499 13.7662 26.4006 14.5555 26.0272 17.1208C25.9099 17.9262 25.6752 19.3555 25.4992 20.2942C25.1686 22.0488 24.9126 23.5422 24.7952 24.4222L24.7312 24.9235L24.1926 24.8862C23.8939 24.8702 23.2699 24.8275 22.8006 24.7955C21.6379 24.7208 18.0539 24.7208 17.2272 24.7955C16.3579 24.8808 14.8592 25.1102 14.6139 25.2008C14.5126 25.2382 14.2459 25.3128 14.0272 25.3662C13.8086 25.4142 13.5259 25.5048 13.3979 25.5635C13.0886 25.7075 12.7312 26.0702 12.5552 26.4275C12.3632 26.8275 12.3952 27.1368 12.6779 27.5902C12.9339 27.9902 13.6272 28.5395 14.3419 28.8968L14.8432 29.1475H15.9686C16.5872 29.1475 18.6992 29.1262 20.6566 29.0995L24.2192 29.0515L24.1872 29.3128C24.1712 29.4568 24.0752 30.3155 23.9686 31.2275C23.8672 32.1342 23.7232 33.3982 23.6539 34.0275C23.5792 34.6568 23.5206 35.3608 23.5206 35.5902C23.5206 36.3955 23.7659 37.2168 24.2672 38.0648C24.4166 38.3155 24.5339 38.5342 24.5339 38.5555C24.5339 38.6782 24.8912 39.1208 25.1472 39.3182C25.7126 39.7448 25.7072 39.7448 25.9899 39.6488C26.1392 39.5955 26.3152 39.4782 26.4432 39.3395C26.6512 39.1155 27.3606 37.7555 27.3606 37.5795C27.3606 37.5315 27.4086 37.3928 27.4672 37.2755C27.6006 37.0248 27.9046 35.7662 28.0219 35.0035C28.1819 33.9902 28.2726 32.6728 28.3046 30.9342L28.3366 29.2008H30.3152C32.1446 29.2008 33.3233 29.1528 34.9606 29.0088C35.8246 28.9342 37.9579 28.6035 38.1713 28.5075C38.3473 28.4275 38.6139 28.0008 38.6139 27.7982C38.6139 27.7448 38.6353 27.6808 38.6673 27.6488C38.7526 27.5635 38.8273 27.0515 38.7739 26.9128C38.6833 26.6728 38.2513 26.5235 37.3873 26.4275C36.9606 26.3795 36.0006 26.2462 35.2539 26.1342C34.0913 25.9528 33.0353 25.8248 29.0299 25.3768L28.4806 25.3182V25.0888C28.4806 24.8595 28.6939 21.6488 28.8059 20.1875C28.8859 19.1262 28.8859 16.1128 28.8059 15.1742C28.7312 14.3582 28.6246 13.7715 28.5232 13.6009C28.4859 13.5369 28.3952 13.4782 28.3206 13.4569C28.2459 13.4409 28.1499 13.3982 28.1072 13.3609C28.0006 13.2755 27.8139 13.2169 27.7712 13.2595Z" fill="black"/>
</svg>
