<svg width="64" height="64" viewBox="0 0 64 64" fill="none" xmlns="http://www.w3.org/2000/svg">
<path d="M32.747 7.312C32.6724 7.344 32.459 7.38134 32.267 7.39734C32.075 7.41334 31.8457 7.456 31.7497 7.49334C31.659 7.536 31.3817 7.60534 31.1417 7.65334C30.3684 7.81334 29.979 8.048 29.3817 8.72533C28.9177 9.25333 28.555 9.80267 27.227 12.0267C25.1364 15.52 24.875 15.9573 23.291 18.72C22.443 20.2027 21.5097 21.808 21.227 22.2933C20.3204 23.8293 19.627 25.0667 19.2164 25.8933L18.8164 26.688L18.5177 26.3733C18.3524 26.1973 17.835 25.6427 17.3657 25.1467C16.219 23.9307 15.6004 23.2267 14.2137 21.5467C12.0217 18.8853 11.403 18.288 10.2937 17.7493C9.82438 17.5147 9.68571 17.472 9.44038 17.4773C9.07238 17.4773 8.42704 17.568 8.28838 17.6373C8.23504 17.6693 8.03238 17.7227 7.84038 17.76C7.06171 17.904 6.75238 18.24 6.35771 19.3653C5.68571 21.2747 5.56304 24.1173 5.92038 29.6533C6.09638 32.304 6.65104 36.6453 7.15238 39.2C7.39771 40.4693 7.92038 42.2933 8.24571 43.0293C8.33638 43.232 8.35238 43.3173 8.30438 43.3333C8.26704 43.344 8.10704 43.3813 7.94704 43.4187C7.56304 43.504 7.27504 43.648 7.02438 43.888C6.58171 44.304 6.56571 44.544 6.91771 45.2373C7.23771 45.856 7.65904 46.3147 8.48038 46.928C9.16304 47.44 9.48304 47.6 10.043 47.7067C11.1417 47.9147 11.483 47.92 22.0004 47.9253C32.1977 47.9253 34.4057 47.9573 40.427 48.16C43.4884 48.2667 48.9497 48.5707 52.907 48.8533C55.4244 49.0293 56.2244 48.944 57.0137 48.416C57.4404 48.1333 57.7124 47.7653 58.1764 46.8267C58.9124 45.36 59.2644 44.0587 59.8404 40.6133C60.459 36.9493 60.6297 35.3707 60.8804 30.9067C61.0244 28.3573 61.0084 26.1173 60.8004 21.744C60.6724 18.9493 60.6084 18.0267 60.5017 17.2267C60.3044 15.696 59.9044 14.96 59.2324 14.8587C59.099 14.8373 58.955 14.7733 58.9017 14.7093C58.7577 14.5493 58.299 14.3467 58.075 14.3467C57.9684 14.3467 57.7657 14.384 57.6217 14.4267C57.4777 14.4693 57.243 14.5067 57.0937 14.5067C56.9497 14.5067 56.651 14.5653 56.427 14.6347C56.2084 14.704 55.835 14.8053 55.6057 14.8533C54.635 15.0667 53.3497 15.9733 51.2004 17.9787C50.075 19.0293 49.691 19.36 48.7737 20.0747C47.4617 21.0987 46.7097 21.712 46.0857 22.2613C44.5017 23.664 43.6857 24.3307 43.627 24.2933C43.563 24.256 43.3017 23.7707 42.667 22.5333C41.611 20.4747 40.8484 19.0773 39.707 17.0933C39.435 16.624 38.779 15.4827 38.251 14.56C37.723 13.6373 37.0777 12.5067 36.811 12.048C36.5497 11.5893 36.027 10.6187 35.6537 9.888C34.7044 8.03734 34.5284 7.79734 34.0537 7.712C33.9417 7.69067 33.7604 7.6 33.6644 7.50934C33.371 7.25334 33.0564 7.18934 32.747 7.312ZM33.3177 13.04C33.5844 13.4773 34.1444 14.416 34.571 15.12C36.1177 17.6693 36.875 19.152 39.435 24.608C39.5737 24.9013 39.8564 25.4507 40.075 25.8347C40.2884 26.2187 40.555 26.6987 40.667 26.9067C41.1417 27.776 41.8884 28.6987 42.3417 28.9707C42.4484 29.0347 42.635 29.1733 42.7524 29.2853C43.1044 29.6053 43.275 29.6693 43.659 29.6373C43.899 29.6213 44.0964 29.5573 44.379 29.4133C44.9124 29.1467 46.139 28.3253 46.827 27.7867C47.451 27.2907 47.4884 27.264 48.651 26.1973C49.6964 25.2427 50.203 24.8373 51.5577 23.8613C52.155 23.4347 52.971 22.832 53.371 22.5227C55.451 20.912 56.411 20.2293 56.4857 20.304C56.507 20.3253 56.539 21.5947 56.5604 23.12C56.5977 26.1333 56.5657 27.3813 56.347 30.8533C56.075 35.2 55.9417 36.5013 55.3337 40.7467C55.035 42.848 54.8644 43.7227 54.6937 43.9787L54.603 44.1227L52.0857 44.0907C50.7044 44.0747 49.179 44.032 48.6937 44.0053C47.435 43.9253 43.8244 43.7973 40.3204 43.7067C38.6617 43.664 36.9817 43.616 36.587 43.6C36.1924 43.584 34.763 43.5253 33.4137 43.4667C30.1177 43.328 28.3417 43.2693 24.6404 43.1733C22.923 43.1307 20.7897 43.072 19.8937 43.04C13.787 42.848 10.7257 42.8373 9.77638 43.0133C9.50438 43.0667 9.24838 43.0933 9.21104 43.0773C9.07238 43.024 8.80571 41.296 8.69371 39.7333C8.55504 37.7173 8.49104 32.016 8.58704 29.4347C8.61371 28.6293 8.66171 27.1787 8.69371 26.2133C8.72571 25.2427 8.78438 24.0587 8.83238 23.5733C8.91238 22.7147 9.13638 21.2213 9.20571 21.1147C9.25371 21.0347 9.53104 21.1093 9.89371 21.3013C10.4804 21.6107 11.435 22.608 13.9257 25.52C15.1257 26.9227 16.011 27.9893 16.827 29.0133C17.7017 30.1013 18.731 31.0773 19.2324 31.2853C19.675 31.472 20.3204 31.2053 20.8697 30.6133C21.051 30.416 21.403 29.936 21.6537 29.552C21.9044 29.1627 22.9284 27.6427 23.9364 26.1707C25.803 23.44 26.5924 22.24 28.3577 19.4293C29.6857 17.312 30.107 16.608 30.8217 15.3067C32.283 12.6613 32.6617 12.048 32.779 12.176C32.811 12.2133 33.0564 12.5973 33.3177 13.04Z" fill="black"/>
</svg>
