<svg width="64" height="64" viewBox="0 0 64 64" fill="none" xmlns="http://www.w3.org/2000/svg">
<path d="M42.8271 7.12559C42.3044 7.17359 41.2964 7.32293 41.0937 7.38693C40.9764 7.42426 40.5231 7.54693 40.0857 7.64826C39.6484 7.75493 39.2644 7.86159 39.2324 7.88826C39.2004 7.90959 38.9337 8.01093 38.6404 8.10693C38.3471 8.20293 38.0377 8.30959 37.9471 8.35226C37.8617 8.38959 37.5577 8.51759 37.2804 8.63493C36.2884 9.04026 36.0217 9.16293 35.4404 9.46159C34.2511 10.0696 33.7124 10.4429 32.9817 11.1683C32.5977 11.5523 32.0964 12.1976 31.8937 12.5656C31.6537 12.9976 31.4457 13.3336 31.4084 13.3336C31.3871 13.3336 31.3444 13.2696 31.3177 13.1843C31.2377 12.9603 30.6617 12.1816 30.2031 11.6803C29.3497 10.7523 28.4111 9.95759 27.6271 9.52026C26.2457 8.74693 24.7471 8.23493 23.3604 8.04826C22.7097 7.96293 21.2697 7.95759 20.7204 8.04293C20.1177 8.13893 19.2377 8.32559 19.1737 8.37359C19.1471 8.39493 18.9977 8.45359 18.8484 8.49626C18.0431 8.73093 17.3444 9.28559 16.8377 10.0803C16.6137 10.4323 16.4697 10.8003 16.2564 11.5736C16.1711 11.8829 16.2297 12.8803 16.3631 13.3603C16.5497 14.0269 16.6564 14.2669 17.0937 15.0403C17.6857 16.0909 17.9577 16.4163 18.8271 17.1203C19.6324 17.7709 20.6457 18.3309 21.6271 18.6669C22.0217 18.8056 22.0431 18.8163 21.9204 18.8696C21.8457 18.9016 20.9017 18.9763 19.8137 19.0403C17.0991 19.1896 15.5684 19.3016 15.4404 19.3603C15.3817 19.3816 15.0564 19.4296 14.7204 19.4616C13.8457 19.5469 12.2617 19.7816 12.1337 19.8403C12.0751 19.8669 11.5364 19.9843 10.9337 20.1016C9.42972 20.3896 8.98172 20.5229 8.68838 20.7576C8.56038 20.8643 8.34705 20.9869 8.21372 21.0296C7.74972 21.1843 7.76038 21.1416 7.77105 23.1896C7.77638 25.2803 7.81372 25.5523 8.18172 26.2563C8.92305 27.6696 9.03505 27.8403 9.39772 28.0856C9.52572 28.1709 9.74972 28.3363 9.89372 28.4536C10.0431 28.5763 10.2457 28.7043 10.3471 28.7416C10.4484 28.7843 10.6404 28.8643 10.7737 28.9229C11.0777 29.0563 11.8404 29.2109 12.4164 29.2589L12.8644 29.2963L12.8324 29.9149C12.8164 30.2563 12.8271 31.0829 12.8591 31.7603C12.8857 32.4323 12.9337 35.2909 12.9551 38.1069C12.9817 40.9229 13.0244 43.5629 13.0564 43.9736C13.0884 44.3843 13.1684 45.3816 13.2271 46.1869C13.2911 46.9923 13.3604 47.7389 13.3871 47.8403C13.4137 47.9416 13.4724 48.8056 13.5204 49.7603C13.5631 50.7149 13.6111 51.6589 13.6271 51.8669C13.6964 52.7629 13.8297 53.9523 13.8671 54.0003C13.8884 54.0269 13.9257 54.2936 13.9417 54.5869C13.9951 55.3016 14.0857 55.7229 14.2671 56.0323C14.3471 56.1763 14.5444 56.5336 14.7044 56.8269C14.9871 57.3496 15.0617 57.4349 15.7124 57.9896C15.9737 58.2136 16.0271 58.2403 16.1764 58.2136C16.2724 58.1923 16.4217 58.1283 16.5177 58.0749C16.7311 57.9416 17.3391 57.9309 20.1071 57.9949C22.3684 58.0483 25.0937 57.9523 29.1471 57.6803C29.7337 57.6376 31.3444 57.5363 32.7204 57.4456C34.1017 57.3549 35.6004 57.2429 36.0537 57.2056C37.9204 57.0349 41.1044 56.6936 41.2804 56.6456C41.3817 56.6136 41.7071 56.5656 42.0004 56.5336C43.1044 56.4109 44.6191 56.2083 44.8004 56.1549C44.9017 56.1283 45.7071 56.0109 46.5871 55.8936C49.1791 55.5576 50.1871 55.3816 51.3871 55.0509C52.0111 54.8803 52.2511 54.7896 52.3631 54.6829C52.4004 54.6456 52.4591 54.6136 52.4857 54.6136C52.5497 54.6136 52.9604 54.2403 52.9604 54.1763C52.9604 54.1496 53.0084 54.0803 53.0617 54.0216C53.1204 53.9576 53.1791 53.8509 53.2004 53.7763C53.2484 53.5683 53.4564 53.1523 53.5364 53.0936C53.5737 53.0616 53.6217 52.9283 53.6377 52.8003C53.6537 52.6669 53.6964 52.5229 53.7337 52.4803C53.7711 52.4376 53.8564 52.1976 53.9257 51.9469C54.0591 51.4403 54.1284 50.2989 54.0324 50.1069C53.9844 50.0109 53.9364 49.6429 53.6537 47.1203C53.5577 46.2776 53.1577 43.0456 52.9871 41.7496C52.9071 41.1149 52.7151 38.9603 52.6617 38.0536C52.6404 37.7283 52.6084 37.4403 52.5871 37.4136C52.5657 37.3816 52.5337 37.0243 52.5124 36.6136C52.4057 34.4749 52.1977 31.7389 52.1071 31.4136C52.0431 31.1736 51.6484 27.8509 51.6804 27.8189C51.6964 27.8083 52.0911 27.7336 52.5604 27.6536C53.0297 27.5736 53.4404 27.4936 53.4671 27.4669C53.4991 27.4456 53.6271 27.4083 53.7604 27.3869C53.8937 27.3709 54.1391 27.3176 54.3044 27.2696C54.6831 27.1683 54.9444 26.9069 55.1257 26.4429C55.1951 26.2616 55.2911 26.0749 55.3337 26.0269C55.3764 25.9789 55.4137 25.8563 55.4137 25.7496C55.4137 25.6323 55.4511 25.5309 55.5151 25.4723C55.6324 25.3656 55.7177 25.0616 55.7871 24.5123C55.8564 23.9469 55.8031 23.5683 55.6004 23.2269C55.5044 23.0723 55.4457 22.9229 55.4671 22.8963C55.4884 22.8749 55.5791 22.4909 55.6591 22.0536C55.7871 21.3549 55.8084 21.1203 55.8084 20.2136C55.8137 19.2856 55.8031 19.1309 55.6911 18.7576C55.6271 18.5283 55.5044 18.2136 55.4244 18.0643C55.3444 17.9096 55.2697 17.6696 55.2537 17.5309C55.2271 17.2803 55.2217 17.2696 54.9604 17.1629C54.8164 17.1043 54.5231 16.9709 54.3151 16.8696C53.8404 16.6349 53.6857 16.6456 53.6644 16.9123L53.6484 17.0989L51.7977 17.2483C50.7791 17.3283 49.8617 17.4136 49.7604 17.4403C49.4351 17.5256 45.6911 17.7389 43.3337 17.8136C42.3364 17.8456 41.4191 17.8936 41.2911 17.9203C41.0031 17.9896 40.6937 17.9896 40.6937 17.9256C40.6937 17.8989 40.8217 17.8296 40.9764 17.7709C41.5524 17.5523 44.0377 16.1923 44.2137 16.0003C44.2297 15.9843 44.3311 15.9149 44.4484 15.8509C45.0937 15.4723 46.0911 14.5389 46.6991 13.7389C47.1204 13.1736 47.2804 12.8963 47.8404 11.7069C47.9684 11.4349 48.1444 10.7843 48.2191 10.3149C48.3791 9.31226 48.1871 8.61359 47.6324 8.15493C47.1204 7.73893 46.0911 7.34959 45.1631 7.23226C44.5284 7.15226 43.2324 7.09359 42.8271 7.12559ZM45.7071 9.70159C45.8404 9.73893 46.0217 9.79759 46.1177 9.84026C46.2084 9.88293 46.3097 9.92026 46.3471 9.92026C46.4217 9.92026 46.4111 9.97893 46.2457 10.5336C46.1337 10.9016 45.6804 11.6536 45.3871 11.9523C45.3124 12.0269 45.1791 12.1709 45.0884 12.2723C44.6351 12.7736 43.9204 13.2429 42.6671 13.8563C42.1231 14.1176 41.6217 14.3523 41.5471 14.3736C41.4724 14.3949 41.2964 14.4749 41.1577 14.5443C41.0137 14.6136 40.6884 14.7469 40.4377 14.8323C40.1817 14.9229 39.9044 15.0243 39.8137 15.0669C39.7284 15.1043 39.4884 15.1896 39.2804 15.2536C39.0777 15.3176 38.6671 15.4509 38.3737 15.5469C38.0804 15.6483 37.6591 15.7816 37.4404 15.8403C37.2217 15.9043 36.9711 15.9843 36.8804 16.0269C36.7951 16.0643 36.4431 16.1709 36.1071 16.2669C35.7711 16.3629 35.4724 16.4589 35.4404 16.4803C35.4137 16.5069 35.0617 16.6029 34.6671 16.6936C34.2724 16.7896 33.7924 16.9069 33.6004 16.9656C33.1951 17.0829 32.2564 17.2909 32.2404 17.2696C32.2351 17.2589 32.2457 17.1203 32.2617 16.9496C32.2884 16.7149 32.3471 16.5816 32.5231 16.3309C32.6457 16.1549 32.7471 15.9949 32.7471 15.9789C32.7471 15.9203 33.7497 14.4856 34.0857 14.0589C34.4111 13.6536 35.0884 13.0136 35.3977 12.8216C35.4777 12.7683 35.5737 12.7043 35.6004 12.6723C35.8564 12.3949 37.8991 11.2749 38.7737 10.9229C38.9924 10.8376 39.2004 10.7469 39.2271 10.7203C39.2591 10.6989 39.5471 10.5869 39.8671 10.4803C40.1924 10.3683 40.4804 10.2563 40.5124 10.2296C40.5444 10.2083 40.9017 10.1016 41.3017 10.0056C41.7017 9.90426 42.0537 9.80293 42.0804 9.78693C42.1124 9.76559 42.3684 9.71759 42.6564 9.68026C43.2644 9.58959 45.3284 9.61093 45.7071 9.70159ZM22.3311 10.6136C22.7044 10.6456 23.0617 10.6936 23.1204 10.7203C23.1791 10.7416 23.3817 10.7949 23.5737 10.8269C24.0751 10.9176 24.8004 11.0936 24.9871 11.1736C25.0777 11.2109 25.3391 11.3123 25.5737 11.3923C26.0804 11.5683 26.9657 12.0216 27.3977 12.3203C28.3364 12.9709 29.5417 14.2563 30.1284 15.2269L30.3097 15.5256L30.3151 16.5763C30.3204 17.1523 30.3417 17.6643 30.3684 17.7123C30.3897 17.7709 30.3791 17.8083 30.3311 17.8296C30.2564 17.8563 28.8004 17.5309 28.6137 17.4403C28.5551 17.4136 28.1337 17.3069 27.6804 17.2003C27.2271 17.0936 26.8057 16.9869 26.7471 16.9603C26.6244 16.9016 25.6591 16.6883 25.0937 16.5923C24.8911 16.5549 24.6724 16.5069 24.6137 16.4803C24.5551 16.4536 24.3524 16.4109 24.1604 16.3736C23.6111 16.2776 22.6084 16.0483 22.5124 16.0003C22.4644 15.9736 22.1764 15.8776 21.8671 15.7816C20.6191 15.3923 19.6911 14.7683 19.1044 13.9096C19.0084 13.7709 18.9337 13.6483 18.9337 13.6323C18.9337 13.6163 18.8591 13.4509 18.7684 13.2696C18.5817 12.8856 18.4377 12.2403 18.4911 11.9949C18.5284 11.8083 18.9551 11.3443 19.2804 11.1363C19.6271 10.9176 20.3844 10.6669 20.8377 10.6189C21.4404 10.5549 21.5737 10.5549 22.3311 10.6136ZM53.1471 19.1309C53.1257 19.2429 53.0884 19.3603 53.0671 19.3869C53.0404 19.4189 52.9711 19.7443 52.9071 20.1069C52.7844 20.8323 52.6404 21.4509 52.5924 21.4936C52.5017 21.5629 52.2511 22.7416 52.2244 23.1896C52.2084 23.4829 52.1764 23.6963 52.1391 23.7069C52.1071 23.7176 50.8804 23.7923 49.4137 23.8669C47.9471 23.9416 46.3524 24.0269 45.8671 24.0589C43.8457 24.1816 43.2804 24.2083 41.1471 24.2616C35.8244 24.4056 34.9711 24.4269 34.2084 24.4589L33.4031 24.4909L33.2057 23.0669C33.0991 22.2829 32.9871 21.5949 32.9604 21.5469C32.9337 21.4936 32.9017 21.2749 32.8964 21.0616L32.8804 20.6723L33.2004 20.6029C33.3764 20.5656 34.1711 20.5016 34.9604 20.4589C35.7551 20.4109 36.6671 20.3523 36.9871 20.3256C37.3124 20.2936 37.8244 20.2563 38.1337 20.2403C39.5151 20.1709 43.3177 19.9363 43.7817 19.8936C44.0644 19.8723 45.1204 19.7763 46.1337 19.6856C47.1471 19.5949 48.3097 19.4829 48.7204 19.4403C50.1977 19.2909 51.9471 19.0936 52.4857 19.0189C52.7897 18.9816 53.0724 18.9443 53.1151 18.9389C53.1684 18.9336 53.1791 18.9816 53.1471 19.1309ZM30.2511 22.6509C30.2404 23.7283 30.2137 24.5709 30.1871 24.5869C30.1604 24.6029 28.4644 24.6616 26.4164 24.7149C22.7364 24.8109 17.9417 25.0083 17.8404 25.0776C17.8137 25.0936 16.8271 25.1416 15.6484 25.1789C13.9577 25.2323 13.3657 25.2323 12.8004 25.1789C12.4057 25.1416 12.0591 25.0936 12.0271 25.0723C12.0004 25.0456 11.8884 25.0136 11.7924 24.9923C11.3231 24.9069 11.1951 24.8483 11.1417 24.7043C11.0777 24.5443 10.9764 23.4563 10.9657 22.8056L10.9604 22.3843L11.2271 22.3203C11.3764 22.2883 11.5257 22.2456 11.5577 22.2243C11.6377 22.1763 13.0724 21.9949 14.4537 21.8669C15.0831 21.8083 15.8404 21.7389 16.1337 21.7069C16.4271 21.6803 17.3764 21.6216 18.2404 21.5736C21.6057 21.4029 22.8111 21.3283 23.1471 21.2803C23.3391 21.2536 24.7417 21.1416 26.2671 21.0403C27.7924 20.9389 29.1471 20.8323 29.2804 20.8056C29.4137 20.7843 29.6911 20.7576 29.8937 20.7523L30.2671 20.7469L30.2511 22.6509ZM49.3871 28.4216C49.3871 28.6563 49.4244 29.4403 49.4671 30.1709C49.5791 32.0003 49.6537 34.3789 49.6537 36.0109C49.6537 36.7683 49.6751 37.4883 49.7071 37.6109C49.7337 37.7389 49.7817 38.5229 49.8137 39.3603C49.8617 40.6776 50.0697 43.9789 50.1604 44.8536C50.2937 46.1389 50.3631 50.6189 50.2511 50.7309C50.1337 50.8483 49.1684 51.0136 47.4671 51.2003C46.6884 51.2856 45.6591 51.4029 45.1737 51.4616C44.1017 51.5949 42.0271 51.7869 41.6857 51.7869C41.5524 51.7869 41.3977 51.8083 41.3444 51.8349C41.2964 51.8616 40.7631 51.9096 40.1604 51.9416C39.5577 51.9736 38.3844 52.0376 37.5471 52.0803C36.7097 52.1229 35.8404 52.1709 35.6164 52.1816L35.2057 52.2083L35.2644 52.0643C35.2964 51.9843 35.3391 51.8723 35.3604 51.8136C35.6644 51.0456 35.6911 49.6056 35.4404 47.6803C35.3977 47.3709 35.2644 46.3043 35.1471 45.3069C35.0244 44.3096 34.9017 43.4456 34.8804 43.3869C34.7791 43.1416 34.6297 40.9976 34.5071 37.9203C34.4804 37.1736 34.4324 36.4376 34.4004 36.2936C34.3524 36.0323 34.2937 35.1416 34.0804 31.2803C34.0217 30.2243 33.9471 29.2856 33.9204 29.1949C33.8884 29.1043 33.8671 28.9229 33.8671 28.7843V28.5336L34.1497 28.5283C34.2991 28.5229 34.7737 28.5016 35.2004 28.4749C37.1631 28.3629 39.7017 28.2723 42.1551 28.2189C46.2137 28.1283 49.1951 28.0483 49.2217 28.0216C49.2324 28.0109 49.2751 28.0003 49.3177 28.0003C49.3711 28.0003 49.3871 28.1069 49.3871 28.4216ZM30.2084 30.9443C30.1711 33.5789 30.2617 40.8643 30.3524 42.2509C30.4111 43.1309 30.4697 43.7283 30.7204 45.7869C30.7791 46.2829 30.8857 47.2216 30.9604 47.8669C31.1364 49.4669 31.2377 50.2083 31.3337 50.6989C31.4191 51.1203 31.8244 52.1016 31.9844 52.2776C32.0537 52.3576 32.0537 52.3736 31.9951 52.3949C31.9524 52.4109 31.2591 52.4749 30.4537 52.5336C29.6484 52.5976 28.6777 52.6829 28.2937 52.7203C27.9151 52.7629 26.9284 52.8696 26.1071 52.9549C25.2857 53.0456 24.3364 53.1523 24.0004 53.2003C23.6644 53.2483 22.5231 53.3869 21.4671 53.5149C20.4111 53.6376 19.5097 53.7549 19.4671 53.7763C19.4244 53.7923 19.0191 53.8403 18.5711 53.8776L17.7604 53.9523L17.7071 53.7603C17.6111 53.3869 17.4137 51.0776 17.3071 49.0669C17.2911 48.7309 17.2537 48.3683 17.2271 48.2669C17.2004 48.1656 17.0937 47.0243 16.9871 45.7336C16.8857 44.4429 16.7737 43.2803 16.7471 43.1469C16.6777 42.7949 16.6457 41.9096 16.5871 38.5603C16.5177 34.7363 16.3844 31.8296 16.2671 31.5469C16.2351 31.4616 16.0484 29.5843 16.0537 29.3549C16.0537 29.3176 16.3204 29.2856 16.8164 29.2643C18.9177 29.1683 22.7364 28.9496 23.0404 28.9016C23.2324 28.8749 24.8751 28.8056 26.6937 28.7523C28.5124 28.6989 30.0537 28.6509 30.1231 28.6456L30.2404 28.6403L30.2084 30.9443Z" fill="black"/>
</svg>
