<svg id="Layer_1" data-name="Layer 1" xmlns="http://www.w3.org/2000/svg" viewBox="0 0 400 400"><defs><style>.cls-1{fill:#f9dfb9;}.cls-2{fill:#fff;}.cls-3,.cls-8{fill:#f2f2f2;}.cls-4{fill:#ed5d3a;}.cls-5{fill:#0098d9;}.cls-6,.cls-7{fill:none;stroke-linecap:round;}.cls-6,.cls-7,.cls-8{stroke:#000;stroke-width:1.88px;}.cls-6{stroke-linejoin:round;}.cls-7,.cls-8{stroke-miterlimit:10;}</style></defs><title>Desk_Dudes44</title><path d="M145.55,336.18s-52.8-.83-51.25,5,47.57,3.37,47.57,3.37Z"/><path class="cls-1" d="M299.71,148.28c13.93,37.44-10.28,59.77-30.1,59.55l.11-20.54c11-1.31,20.74-15.24,11.71-33.74l0-.05c4,1.28,13.33-1.23,18.26-5.23Z"/><path class="cls-2" d="M166.06,319.38a23,23,0,0,1,3.7.82l-4,.06Z"/><path class="cls-2" d="M106.56,248.8h0Z"/><path class="cls-1" d="M260.53,102.59l-34.7.19a3.56,3.56,0,0,0-3.31,3.82l.28,15.06-115.31,3.71c-2.82.1-5.08,2.66-5.14,5.83l-2.11,108.86c-.16,4.69,2.39,8.61,5.69,8.76l.6,0h0c3-.31,5.5-3.82,5.65-8.22l2.22-99.76c.08-3.44,2.52-6.22,5.57-6.35l112.6-5V118c0-3.34,2.4-6.06,5.37-6.06h25.59l.2-5.55A3.44,3.44,0,0,0,260.53,102.59Z"/><path d="M253.27,197.1a4,4,0,1,1-2-5.25A4,4,0,0,1,253.27,197.1Z"/><path class="cls-2" d="M137.64,315.18a72.63,72.63,0,0,1-10.44-.57Z"/><path class="cls-3" d="M298.35,142.8h0l0,0h0c-7.56-22-20-37.1-25.34-31.15-3.38,3.81,5.12,7,9.37,17.1a30.12,30.12,0,0,0-12.29-11.45,11.18,11.18,0,0,0-5.31-1.35c-2.25.2-4,3-3.81,4.75.41,3.08,4.54,4.61,6.91,6,.76.45,1.47.86,2.17,1.33h0a21.11,21.11,0,0,1,5.43,5.29,9.55,9.55,0,0,0-5.45-.85,10.21,10.21,0,0,0-9.16,8.72c-.71,5.13,3.52,5,3.52,5,2.46-.28,3.46-1.4,3.57-2.44a4.59,4.59,0,0,1,2-3.56c2-1.25,4.92-.16,5.2,4.21a3.68,3.68,0,0,1-5.2,3.76l0,0h0c-1.06-.36-5.27.13-3.57,4.14a5.22,5.22,0,0,0,3.53,3h0a9,9,0,0,0,9.63-4.15l.07,0h0c-.1,1.2.62,2,1.86,2.36h0c4,1.28,13.33-1.23,18.26-5.23a12,12,0,0,0,1-.88C302.57,145.53,300.84,141,298.35,142.8Z"/><path class="cls-4" d="M168.67,309.42l-.41,0c-.87,4.95-1.77,8.45-2.2,10a23,23,0,0,1,3.7.82h0l26.75-.4a63.21,63.21,0,0,0,2.4-11.53C193.94,310.89,178.21,310.43,168.67,309.42Zm-1.36,5.19,10.44.57A72.63,72.63,0,0,1,167.31,314.61Zm22.39.17,8.11-.79A74.23,74.23,0,0,1,189.7,314.78Z"/><path class="cls-4" d="M128.56,309.49l-.23-.05c-.39,2-.78,3.7-1.13,5.17l10.44.57a72.63,72.63,0,0,1-10.44-.57c-.84,3.6-1.47,5.65-1.47,5.65h.47l30.27-.46a57.91,57.91,0,0,0,3.19-11.36h0C154.54,310.83,138.38,310.42,128.56,309.49Zm21.65,5.12,8.18-.62A32.25,32.25,0,0,1,150.21,314.61Z"/><path class="cls-2" d="M177.75,315.18a72.63,72.63,0,0,1-10.44-.57Z"/><path class="cls-1" d="M261,120.67c-.22-1.74,1.56-4.55,3.81-4.75a11.18,11.18,0,0,1,5.31,1.35,5.47,5.47,0,0,0-5.17-5.38H238c-3,0-5.38,2.72-5.37,6.06V129.5l-112.6,5c-3,.13-5.49,2.91-5.57,6.35l-2.22,99.76c-.15,4.4-2.62,7.91-5.65,8.22l22.1-.64L151,247.5l12.86-.37,21.6-.63,79.07-2.3c2.71-.08,4.88-2.57,4.89-5.62l.17-30.75.11-20.54.17-32a5.22,5.22,0,0,1-3.53-3c-1.7-4,2.51-4.5,3.57-4.14l0-7.95a4.59,4.59,0,0,0-2,3.56c-.11,1-1.11,2.16-3.57,2.44,0,0-4.23.15-3.52-5a10.21,10.21,0,0,1,9.16-8.72l0-4.44h0c-.7-.47-1.41-.88-2.17-1.33C265.49,125.28,261.36,123.75,261,120.67Zm-7.68,76.43a4,4,0,1,1-2-5.25A4,4,0,0,1,253.27,197.1Z"/><path class="cls-5" d="M221.58,329.48c-5.59-11.73-19-10.22-23.41-9.26h0l-28.34.43h0l-.07,0h0l-4,.06.26-.88a28.81,28.81,0,0,0-9.59.41h0l-30.26.46h-.47c-4.57,4.56-4.92,20.22-2.46,23.49h10.26c-.2-1.83,1.28-6,3.69-5.14,1.55.56,2.05,3.1,2.05,5.14H180c.23-.89.45-1.83.64-2.79a11,11,0,0,1,.34,2.79h40.72C222.89,339.6,223.72,334,221.58,329.48Z"/><path class="cls-2" d="M150.21,314.61l8.18-.62A32.25,32.25,0,0,1,150.21,314.61Z"/><path class="cls-4" d="M128.66,248.16c5.6,23.4,2.41,47.72-.33,61.28l.23.05c9.82.93,26,1.34,31.1-1.05h0c4.05-22.67-3.71-48-8.64-60.94Z"/><path class="cls-4" d="M185.48,246.5l-21.6.63c8.79,24.53,6.74,48.77,4.38,62.26l.41,0c9.54,1,25.27,1.47,30.24-1.15C201.74,283.82,191.48,258.7,185.48,246.5Z"/><path class="cls-2" d="M189.7,314.78l8.11-.79A74.23,74.23,0,0,1,189.7,314.78Z"/><polyline class="cls-6" points="169.83 320.65 198.16 320.22 198.28 320.22"/><path class="cls-6" d="M190.72,326.75c1.73-5,7.27-6.48,7.45-6.53h0c4.41-1,17.82-2.47,23.41,9.26,2.14,4.5,1.31,10.12.11,14.7H181a11,11,0,0,0-.34-2.79"/><path class="cls-6" d="M166.06,319.81c.43-1.55,1.33-5.05,2.2-10,2.36-13.5,4.41-37.74-4.38-62.27"/><path class="cls-6" d="M185.48,246.93c6,12.19,16.26,37.32,13.43,61.76a63.21,63.21,0,0,1-2.4,11.53l-26.75.41"/><path class="cls-6" d="M125.73,320.69s.63-2.06,1.47-5.65c.35-1.48.74-3.21,1.13-5.17,2.74-13.56,5.93-37.88.33-61.29"/><path class="cls-6" d="M151,247.93c4.93,13,12.69,38.27,8.64,60.93a57.91,57.91,0,0,1-3.19,11.36l-30.27.46"/><path class="cls-6" d="M149,326.75c1.73-5,7.27-6.48,7.44-6.53h0a28.81,28.81,0,0,1,9.59-.41,21.05,21.05,0,0,1,3.7.82h0l.07,0h0a16.35,16.35,0,0,1,10,8.83c1.72,3.62,1.52,8,.75,11.91-.19,1-.41,1.9-.64,2.79H139.27c0-2-.5-4.58-2.05-5.14-2.41-.88-3.89,3.31-3.69,5.14H123.27c-2.46-3.27-2.11-18.93,2.46-23.49h.47l30.26-.46h.12"/><path class="cls-6" d="M128.56,309.92c9.82.92,26,1.33,31.1-1.06"/><path class="cls-6" d="M127.2,315a72.63,72.63,0,0,0,10.44.57"/><path class="cls-6" d="M168.67,309.85c9.54,1,25.27,1.46,30.24-1.16"/><path class="cls-6" d="M167.31,315a72.63,72.63,0,0,0,10.44.57"/><path class="cls-6" d="M189.7,315.21a77.9,77.9,0,0,0,8.11-.79"/><line class="cls-6" x1="189.7" y1="315.21" x2="189.7" y2="315.21"/><path class="cls-6" d="M150.21,315a32.8,32.8,0,0,0,8.18-.62"/><path class="cls-7" d="M270.07,117.7a5.48,5.48,0,0,0-5.17-5.39h-1.35l-25.59,0c-3,0-5.38,2.71-5.37,6v11.55l-112.6,5c-3,.14-5.49,2.92-5.57,6.35L112.21,241"/><line class="cls-7" x1="270.01" y1="132.87" x2="270.03" y2="128.44"/><line class="cls-7" x1="269.93" y1="148.53" x2="269.97" y2="140.58"/><path class="cls-7" d="M106.54,249.23h0l22.1-.64,22.36-.65,12.86-.38,21.6-.62,79.07-2.31c2.71-.07,4.88-2.56,4.89-5.62l.17-30.74.11-20.55.17-32"/><line class="cls-7" x1="105.93" y1="249.24" x2="106.53" y2="249.23"/><path class="cls-7" d="M112.21,241c-.15,4.39-2.62,7.9-5.65,8.21h0a4,4,0,0,1-.6,0c-3.3-.14-5.85-4.06-5.69-8.76l2.11-108.86c.06-3.17,2.32-5.73,5.14-5.82l115.31-3.71L222.52,107a3.57,3.57,0,0,1,3.31-3.82l34.7-.18a3.43,3.43,0,0,1,3.22,3.74l-.2,5.55"/><path class="cls-7" d="M242.2,192.39a7.85,7.85,0,1,1,4,10.36"/><path class="cls-7" d="M253.27,197.53a4,4,0,1,1-2-5.26A4,4,0,0,1,253.27,197.53Z"/><path class="cls-6" d="M270,128.44a20.94,20.94,0,0,1,5.43,5.29"/><path class="cls-6" d="M282.36,129.14a30.09,30.09,0,0,0-12.29-11.44,11.06,11.06,0,0,0-5.31-1.35c-2.25.19-4,3-3.81,4.74.41,3.09,4.54,4.62,6.91,6,.76.45,1.47.87,2.17,1.34"/><path class="cls-6" d="M282.38,129.18v0"/><path class="cls-6" d="M298.33,143.2c-7.56-22-20-37.1-25.34-31.15-3.38,3.8,5.12,7,9.37,17.09h0l.18.44"/><path class="cls-6" d="M299.71,148.71c13.93,37.43-10.28,59.77-30.1,59.55"/><path class="cls-6" d="M269.72,187.71c11-1.3,20.74-15.24,11.71-33.73"/><path class="cls-6" d="M288.53,149.09a22,22,0,0,0,9.47-5.57,3,3,0,0,1,.35-.29h0c2.49-1.82,4.22,2.72,2.34,4.59-.3.3-.63.59-1,.88-4.93,4-14.28,6.5-18.26,5.23h0c-1.24-.39-2-1.15-1.86-2.35h0"/><path class="cls-6" d="M280.08,150.28a7,7,0,0,1-.56,1.25,9,9,0,0,1-9.63,4.16,5.24,5.24,0,0,1-3.53-3"/><path class="cls-6" d="M266.36,152.66c-1.7-4,2.51-4.5,3.57-4.13h0a3.68,3.68,0,0,0,5.2-3.75c-.28-4.37-3.15-5.47-5.2-4.21a4.56,4.56,0,0,0-2,3.56c-.11,1-1.11,2.15-3.57,2.43,0,0-4.23.16-3.52-5a10.22,10.22,0,0,1,9.16-8.72,9.63,9.63,0,0,1,5.45.86"/><path class="cls-6" d="M238.66,168.84s18.54-3.51,14.33,6.89S232.4,178,232.4,178"/><path d="M213,344.47H195.41c1,0,2-.76,2.71-2.52a14.86,14.86,0,0,0,.6-2.32c.63-3.05,1.35-7,5-6.46l.11,0c3.15.57,3.64,6.82,5.38,9.11A5.24,5.24,0,0,0,213,344.47Z"/><path d="M236.8,344.42v.06H213.39a3.39,3.39,0,0,0,3.12-2.77c.74-2.7.46-5.55.64-8.32a14.7,14.7,0,0,1,.63-3.6c.95-2.91,2.67-3.86,4.49-3.57,2,.32,4.11,2.12,5.5,4.45C230.6,335.43,230.11,344.42,236.8,344.42Z"/><path class="cls-3" d="M227.66,235a12.19,12.19,0,0,1-1.39-1.57h0c.87,2-1.87,4-3.78,2.87a2.71,2.71,0,0,1-.35-.24c-4-3-6.67-15.13-5.89-20.53a6.18,6.18,0,0,1,.42-1.6c1-2.27,3.71-2.21,5.06-.24-.84-3.12,3-11.76,10.4-12.09,3.63-.17,14.52,3.86,13,9.35a3.5,3.5,0,0,1-2.1,2.41l-4.13.13a10.6,10.6,0,0,1-5.1-2.58l-.46-.09a7.29,7.29,0,0,0-.34,2.9c.42,5.09,5.95,9.52,8.57,11.77,4.09,3.5,6.79,8.34,8.43,14C237.8,243.05,230.51,237.77,227.66,235Z"/><path class="cls-1" d="M222.14,236l-.14.34c-45.2,13.15-56.8-39.4-34.24-60.47l16,13.9c-13,19.94.77,30.88,12.15,25.66l.34,0C215.47,220.88,218.1,233,222.14,236Z"/><path class="cls-3" d="M193.41,339.33c-1.75,2.41-.09,5.1,1.86,5.14h.14c1,0,2-.76,2.71-2.52a14.86,14.86,0,0,0,.6-2.32A9.7,9.7,0,0,1,193.41,339.33Z"/><path class="cls-3" d="M203.86,333.15v0c3.15.57,3.64,6.82,5.38,9.11a5.24,5.24,0,0,0,3.76,2.17h.4a3.39,3.39,0,0,0,3.12-2.77c.74-2.7.46-5.55.64-8.32H217C213.36,334.31,203.86,333.15,203.86,333.15Z"/><path class="cls-3" d="M291.67,288.53l0-.33c1,.08,2,.18,3,.32,3,.4,5.95,1,8.2,3.15,7.82-25.43,6.22-79.19-8.58-79.15-.93,0-27.19,0-51.37.79a7.09,7.09,0,0,1-4.13.13l-5.81.22H233c.42,5.09,5.95,9.52,8.57,11.77,4.09,3.5,6.79,8.34,8.43,14-12.16,3.63-19.45-1.65-22.3-4.47l-.1.1c-6.37,33.44,6.42,65.5,13.55,89.6-7.11,3.37-17.33,1.8-18.84,1.54v0c2,.32,4.11,2.12,5.5,4.45,2.83,4.77,2.34,13.76,9,13.76v.06h59.31s9.38,0,6.42-12.74C301,325.14,293.49,307.27,291.67,288.53Z"/><path class="cls-6" d="M203.76,189.36c-13,19.94.77,30.88,12.15,25.66"/><path class="cls-6" d="M222,235.92c-45.2,13.15-56.8-39.4-34.24-60.46"/><path class="cls-6" d="M222.1,214a1.93,1.93,0,0,1-.37-.73c-.84-3.13,3-11.76,10.4-12.1,3.63-.16,14.52,3.87,13,9.35a3.48,3.48,0,0,1-2.1,2.41,7.09,7.09,0,0,1-4.13.14,10.69,10.69,0,0,1-5.1-2.58"/><path class="cls-6" d="M227.56,234.62c-6.37,33.45,6.42,65.51,13.55,89.61q.84,2.83,1.56,5.52c1.17,4.35,2.21,12.79-4,14.05a10,10,0,0,1-1.87.2c-6.69,0-6.2-9-9-13.76-1.39-2.34-3.5-4.14-5.5-4.46-1.82-.28-3.54.66-4.49,3.57a14.78,14.78,0,0,0-.63,3.6c-.18,2.77.1,5.62-.64,8.33a3.41,3.41,0,0,1-3.12,2.77H213a5.27,5.27,0,0,1-3.76-2.17c-1.74-2.29-2.23-8.54-5.38-9.12l-.11,0c-3.67-.51-4.39,3.42-5,6.46a14.57,14.57,0,0,1-.6,2.32c-.7,1.76-1.73,2.48-2.71,2.53h-.14c-2,0-3.61-2.73-1.86-5.15a9.6,9.6,0,0,0,5.31.3"/><path class="cls-6" d="M203.86,332.73s9.5,1.15,13.18.21"/><path class="cls-6" d="M222.09,325.73l.18,0c1.51.25,11.73,1.82,18.84-1.54l0,0"/><path class="cls-6" d="M233.05,213.24c1.9-.08,3.84-.16,5.81-.22l4.13-.14c24.18-.75,50.44-.78,51.37-.79,14.8,0,16.4,53.72,8.58,79.15-2.25-2.13-5.2-2.74-8.2-3.14-1-.14-2-.25-3-.33-6.26-.5-12.19,0-18.56.6-5,.45-9.91,1-14.87,1.64-1.54.21-10.28.3-11.61,1.12,4.45-16.35,7.67-37.09,3.3-52.14-1.64-5.64-4.34-10.47-8.43-14-2.62-2.24-8.15-6.67-8.57-11.76a7.29,7.29,0,0,1,.34-2.9,8.52,8.52,0,0,1,.44-1.06"/><path class="cls-6" d="M195.27,344.05H296.11s9.38,0,6.42-12.74c-1.54-6.59-9-24.47-10.86-43.21"/><path class="cls-6" d="M250,239h0c-12.16,3.64-19.45-1.64-22.3-4.46a11.79,11.79,0,0,1-1.39-1.58"/><path class="cls-6" d="M221.73,213.22c-1.35-2-4-2-5.06.24a6,6,0,0,0-.42,1.6c-.78,5.39,1.85,17.54,5.89,20.53l.35.23c1.91,1.15,4.65-.84,3.78-2.87,0-.09-.09-.18-.14-.27S222,227,222.24,221"/><path class="cls-6" d="M236.08,227.55a7.94,7.94,0,0,0,8.35,1"/><path class="cls-6" d="M234.54,233.67s4.33,3.38,13.37.47"/><ellipse class="cls-8" cx="252.49" cy="150.89" rx="16.67" ry="22.61"/><path class="cls-6" d="M213,140.93s-22.68-2.63-26.54-2.76c-.57,0-1.59,3.24-1.59,3.24"/><ellipse cx="254.43" cy="161.76" rx="4.32" ry="5.43"/><ellipse class="cls-8" cx="228.86" cy="150.89" rx="16.67" ry="22.61"/><ellipse cx="234.52" cy="161.76" rx="4.32" ry="5.43"/><polygon points="151.74 251.06 130.85 260.53 129.37 248.13 150.7 247.51 151.74 251.06"/><polygon points="187.44 251.06 167.58 259.12 164.84 247.1 186.09 246.48 187.44 251.06"/><path d="M226.43,240.92s8.62,7,17.38,5.18c0,0,7.87,14.48,6.12,23.55-1.25,6.45,1.83-8.45,1.83-8.45s.45-19.63-1.92-22.82c0,0-14.55,4-22.26-4Z"/><circle class="cls-3" cx="230.83" cy="158.64" r="2.32"/><circle class="cls-3" cx="250.92" cy="158.82" r="2.32"/></svg>