<svg id="Layer_1" data-name="Layer 1" xmlns="http://www.w3.org/2000/svg" viewBox="0 0 400 400"><defs><style>.cls-1{fill:#ffc800;}.cls-2{fill:#ed5d3a;}.cls-3{fill:#fbf6d8;}.cls-4{fill:#eb658a;}.cls-5{fill:#3e94cd;}.cls-6{fill:#0098d9;}.cls-7,.cls-8{fill:none;stroke-linecap:round;}.cls-7,.cls-8,.cls-9{stroke:#000;stroke-width:1.88px;}.cls-7,.cls-9{stroke-miterlimit:10;}.cls-8{stroke-linejoin:round;}.cls-10,.cls-9{fill:#fff;}</style></defs><title>Desk_Dudes26</title><path d="M64.53,342.16c0,.93-1,3.23-2.74,3.28-3.24.07-7.54,0-11.15,0-8.39,0-13.19-.94-13.19-2.75s4.66-3.5,12.31-3.67C57.08,338.87,64.53,340.34,64.53,342.16Z"/><path d="M292.37,345c.4-.22-76.26,2.17-73.82-4.87,1.79-5.19,74.3-1.88,74.3-1.88Z"/><path d="M175,345s-32.29.13-56.93.46c-18.44.24-27.9-2.25-26.93-4.8,1.88-5,82.9-3.4,82.9-3.4Z"/><path class="cls-1" d="M134.06,156.17l0-.06V141.62a18.46,18.46,0,0,1,18.47-18.46H295.71a18.46,18.46,0,0,1,18.46,18.46v17.51h0c35.2-14.15,76.16,33.22,26,68.19-3-6.31-10.34-14-14.2-17.42,27.07-20.75,6.13-38.92-12-30.17l.22.45v29.5c-4.33-.37-9.74,2-8.92,10.46v.49c-4.11-.11-5.82,2.24-4.73,6.29a5.47,5.47,0,0,0,4.12,3.55c-4.36-.37-5.85,3.93-3.67,6.87,1.33,1.81,3.52,2.62,5.59,3.18l0,.13c-2.37.52-3.14,4.49-.08,6.8a18.36,18.36,0,0,1-10.73,3.45H152.55a18.47,18.47,0,0,1-18.47-18.47V180.35c-34.88-12.06-47.35,16.34-47.35,16.34-1.18-9.34-11.1-12.56-11.1-12.56v-5.84l0-.09a4.2,4.2,0,0,0,3.32-4.11v-9.7h.14C88.14,158.79,111,147.22,134.06,156.17Z"/><polygon class="cls-2" points="326.74 335.39 325.28 344.64 275.41 344.27 272.41 339.55 268.8 344.63 253.45 344.64 255.08 336.29 257.52 336.18 321.74 335.35 326.74 335.39"/><polygon class="cls-2" points="188.47 336.29 190.1 344.64 174.76 344.63 171.14 339.55 168.14 344.27 118.27 344.64 116.81 335.39 121.81 335.35 186.03 336.18 188.47 336.29"/><path class="cls-3" d="M294.08,296c7.57,3.58,4.68,10.59.7,12.14h0l-.27.09c-8.43,2.7-28.57,4.2-36.46,2.26a5.89,5.89,0,0,1-2.88-1.34,6.79,6.79,0,0,1,2.57-10.91c.65-.23,1.33-.45,2-.67,10.43-3.08,28.31-3.76,33.76-1.8A4.65,4.65,0,0,1,294.08,296Z"/><path class="cls-3" d="M186.37,298.5a6.81,6.81,0,0,1,2,10.68,5.86,5.86,0,0,1-2.85,1.33c-7.86,2-28.06.46-36.49-2.25a4.86,4.86,0,0,1-.63-.25h0c-3.79-1.82-6.29-8.52,1.05-12a11.83,11.83,0,0,1,2.92-.8c7.69-1.28,24.56-.19,33.43,3Z"/><path class="cls-1" d="M289.37,251.13c3.72,10.14,6.25,24.64,4.17,44.67-5.45-2-23.33-1.28-33.76,1.8l0-.14c2.88-11.65,6.48-32.47-.94-46.55h30.57Z"/><path class="cls-1" d="M187,250.91v.46c-7.16,14.44-3.36,35.66-.49,46.95l-.09.18-.55-.23c-8.87-3.24-25.74-4.33-33.43-3-2-20.1.66-34.25,4.44-44.31Z"/><path class="cls-4" d="M294.78,308.16c30.82-12.05,40.83,15,27,27.19l-64.22.83.48-25.49,0-.17c7.89,1.94,28,.44,36.46-2.26l.27-.09Z"/><path class="cls-4" d="M185.55,310.51l.48,25.67-64.22-.83C107.94,323.21,117.59,296,148.42,308h0a4.86,4.86,0,0,0,.63.25C157.49,311,177.69,312.47,185.55,310.51Z"/><path class="cls-5" d="M78.93,164.39v9.7a4.2,4.2,0,0,1-3.32,4.11,4.28,4.28,0,0,1-.87.09,4.2,4.2,0,0,1-4.2-4.2v-57.7a4.2,4.2,0,1,1,8.39,0Z"/><polygon class="cls-2" points="75.65 318.58 75.65 323.13 47.92 323.13 47.83 323.13 47.83 318.58 75.63 318.58 75.65 318.58"/><polygon class="cls-6" points="75.65 323.13 66.59 337.93 66.41 337.81 56.82 337.81 47.92 323.54 47.92 323.13 75.65 323.13"/><rect class="cls-6" x="47.83" y="246.35" width="27.79" height="72.23"/><path class="cls-6" d="M75.63,215.15v31.2H47.83V224.29h-.48c2.42,0,3.71-3.06,2.38-5.25l0-.47a6.41,6.41,0,0,0,1.08.18,3.67,3.67,0,0,0,3.52-1.68c1.27-1.93.31-4.18-.83-6l0-.38c2.79.31,5.61-.88,5.63-4.37,0-3.79-6.51-7.9-11.36-8.82v-77H70.54v53.6a4.2,4.2,0,0,0,4.2,4.2,4.28,4.28,0,0,0,.87-.09l0,.09v18.76s-1.17,7.25-7.18,10.57c-5.57,3.08-1.21,13.34,5.65,8.59a12.52,12.52,0,0,0,1.35-1.08Z"/><path class="cls-5" d="M74.74,112.19a4.2,4.2,0,0,0-4.2,4.2v.08H47.83A13.87,13.87,0,0,1,61.69,102.6,13.51,13.51,0,0,1,74.74,112.19Z"/><polygon class="cls-2" points="70.54 116.47 70.54 120.49 70.34 120.49 47.83 120.49 47.83 116.47 70.34 116.47 70.54 116.47"/><path class="cls-2" d="M66.59,337.93l-3.51,5.74a1.53,1.53,0,0,1-2.61,0l-3.65-5.87h9.59Z"/><path class="cls-3" d="M340.8,228.76c-.18-.46-.38-.94-.61-1.43-3-6.31-10.34-14-14.2-17.42l-.56-.49c-3.1-2.63-7.31.51-6.38,2.71-.62-1.27-2.6-2.24-4.88-2.44-4.33-.37-9.74,2-8.92,10.46v.49c-4.11-.11-5.82,2.24-4.73,6.29a5.47,5.47,0,0,0,4.12,3.55c-4.36-.37-5.85,3.93-3.67,6.87,1.33,1.81,3.52,2.62,5.59,3.18l0,.13c-2.37.52-3.14,4.49-.08,6.8a6.46,6.46,0,0,0,1.24.74c2.95,1.37,16.44,6,28.45-13.9l.11-.21C338.11,235.71,342.31,232.89,340.8,228.76Z"/><path class="cls-3" d="M75.63,184.13v12.92s-1.17,7.25-7.18,10.57c-5.57,3.08-1.21,13.34,5.65,8.59a12.52,12.52,0,0,0,1.35-1.08c5.25-4.93,3-12.39,3-12.39a3.65,3.65,0,0,0,2.63-3.35c.8,2.82,6.35,2.72,5.66-2.7C85.55,187.35,75.63,184.13,75.63,184.13Z"/><path class="cls-3" d="M47.83,197.46V193c-3.63.24-5.06,4.13-4.9,6.4,0,.23,0,.46.07.68l-.34,0c-2.06.56-2.74,3.54-2.56,5.36a14.48,14.48,0,0,0,1,3.83l-.32.13c-1.74-.27-2.85,1.89-2.87,3.27,0,2.69,1.55,5.54,3.19,7.58,1.34,1.67,3.5,3.52,5.67,3.95a3.13,3.13,0,0,0,.6.06c2.42,0,3.71-3.06,2.38-5.25l0-.47a6.41,6.41,0,0,0,1.08.18,3.67,3.67,0,0,0,3.52-1.68c1.27-1.93.31-4.18-.83-6l0-.38c2.79.31,5.61-.88,5.63-4.37C59.2,202.49,52.68,198.38,47.83,197.46Z"/><path class="cls-7" d="M259.74,297.46c2.88-11.65,6.48-32.47-.94-46.55"/><path class="cls-7" d="M289.37,251.13c3.72,10.14,6.25,24.64,4.17,44.67"/><path class="cls-7" d="M186.46,298.32c-2.87-11.29-6.67-32.51.49-46.95"/><path class="cls-7" d="M156.83,250.91c-3.78,10.06-6.46,24.21-4.44,44.31"/><path class="cls-8" d="M294.78,308.16c30.82-12.05,40.83,15,27,27.19l5,0-1.46,8.83-49.87-.09-3-4.58-3.61,4.65-15.35-.12,1.63-7.79,2.44-.11.48-25.49"/><path class="cls-8" d="M258,310.52c7.89,1.94,28,.44,36.46-2.26l.27-.09h0c4-1.55,6.87-8.56-.7-12.14a4.65,4.65,0,0,0-.54-.22c-5.45-2-23.33-1.28-33.76,1.8-.72.22-1.4.44-2,.67a6.79,6.79,0,0,0-2.57,10.91A5.89,5.89,0,0,0,258,310.52Z"/><line class="cls-8" x1="321.74" y1="335.35" x2="257.52" y2="336.18"/><path class="cls-8" d="M148.42,308c-30.83-12.05-40.48,15.2-26.61,27.34l-5,0,1.46,9.25,49.87-.51,3-4.58,3.55,4.6,15.31,0-1.53-7.84-2.44-.11-.48-25.67"/><path class="cls-8" d="M185.55,310.51c-7.86,2-28.06.46-36.49-2.25a4.86,4.86,0,0,1-.63-.25h0c-3.79-1.82-6.29-8.52,1.05-12a11.83,11.83,0,0,1,2.92-.8c7.69-1.28,24.56-.19,33.43,3l.55.23a6.81,6.81,0,0,1,2,10.68A5.86,5.86,0,0,1,185.55,310.51Z"/><line class="cls-8" x1="121.81" y1="335.35" x2="186.03" y2="336.18"/><path class="cls-7" d="M306.44,247.46a18.36,18.36,0,0,1-10.73,3.45H152.55a18.47,18.47,0,0,1-18.47-18.47V180.35"/><line class="cls-7" x1="314.17" y1="180.19" x2="314.17" y2="209.69"/><path class="cls-7" d="M134.08,156.11V141.62a18.46,18.46,0,0,1,18.47-18.46H295.71a18.46,18.46,0,0,1,18.46,18.46v17.51"/><path class="cls-7" d="M151.72,154.1l61.5,53.79a14,14,0,0,0,18.74-.1l60.17-53.69"/><path class="cls-7" d="M86.73,196.69s12.47-28.4,47.35-16.34q1.57.54,3.21,1.2"/><path class="cls-7" d="M140,159a51.81,51.81,0,0,0-6-2.8c-23.07-8.95-45.92,2.62-55,8.22"/><path class="cls-7" d="M310.66,160.76a36.79,36.79,0,0,1,3.51-1.62c35.2-14.15,76.16,33.22,26,68.19"/><path class="cls-7" d="M326,209.91c27.07-20.75,6.13-38.92-12-30.17a24.56,24.56,0,0,0-3.29,1.91"/><path class="cls-7" d="M319.05,212.13c-.93-2.2,3.28-5.34,6.38-2.71l.56.49c3.86,3.42,11.24,11.11,14.2,17.42.23.49.43,1,.61,1.43,1.51,4.13-2.69,7-4.56,5.33l-.15-.15a60.33,60.33,0,0,0-7.83-9.86"/><path class="cls-7" d="M319.1,212.24a.37.37,0,0,1-.05-.11c-.62-1.27-2.6-2.24-4.88-2.44-4.33-.37-9.74,2-8.92,10.46"/><path class="cls-7" d="M336.13,234.3c-12,19.94-25.5,15.27-28.45,13.9a6.46,6.46,0,0,1-1.24-.74c-3.06-2.31-2.29-6.28.08-6.8"/><path class="cls-8" d="M313.4,220.93c-4.72.58-3.77-.1-8-.28h-.16c-4.11-.11-5.82,2.24-4.73,6.29a5.47,5.47,0,0,0,4.12,3.55c-4.36-.37-5.85,3.93-3.67,6.87,1.33,1.81,3.52,2.62,5.59,3.18h0"/><path class="cls-8" d="M303.56,230.11a30,30,0,0,0,9.84,1.53"/><path class="cls-7" d="M304.58,239.85c.67.26,1.34.49,2,.68a30.33,30.33,0,0,0,5.19,1,24.29,24.29,0,0,0,2.59.16"/><path class="cls-7" d="M47.92,323.54l8.9,14.28,3.65,5.87a1.53,1.53,0,0,0,2.61,0l3.51-5.74,9.06-14.8"/><polyline class="cls-7" points="47.83 318.58 47.83 246.35 47.83 224.29"/><polyline class="cls-7" points="75.63 215.15 75.63 246.35 75.63 318.58"/><polyline class="cls-7" points="75.63 178.29 75.63 184.13 75.63 197.05"/><line class="cls-7" x1="47.83" y1="120.49" x2="70.34" y2="120.49"/><polyline class="cls-7" points="47.83 197.46 47.83 193 47.83 120.95"/><path class="cls-7" d="M74.74,112.19a13.51,13.51,0,0,0-13-9.59,13.87,13.87,0,0,0-13.86,13.87H70.34"/><path class="cls-7" d="M75.61,178.2a4.28,4.28,0,0,1-.87.09,4.2,4.2,0,0,1-4.2-4.2v-57.7a4.2,4.2,0,1,1,8.39,0v57.7A4.2,4.2,0,0,1,75.61,178.2Z"/><polygon class="cls-8" points="75.65 323.13 47.92 323.13 47.83 323.13 47.83 318.58 75.63 318.58 75.65 318.58 75.65 323.13"/><line class="cls-7" x1="56.82" y1="337.82" x2="66.41" y2="337.82"/><polyline class="cls-7" points="47.83 246.35 75.63 246.35 75.65 246.35"/><path class="cls-7" d="M47.83,193c-3.63.24-5.06,4.13-4.9,6.4,0,.23,0,.46.07.68.62,4.54,4.14,8.2,8.26,10a8.21,8.21,0,0,0,2.3.6c2.79.31,5.61-.88,5.63-4.37,0-3.79-6.51-7.9-11.36-8.82"/><path class="cls-7" d="M42.66,200.11c-2.06.56-2.74,3.54-2.56,5.36a14.48,14.48,0,0,0,1,3.83A22.11,22.11,0,0,0,43.77,214c1.45,2,3.52,4,6,4.56a6.41,6.41,0,0,0,1.08.18,3.67,3.67,0,0,0,3.52-1.68c1.27-1.93.31-4.18-.83-6"/><path class="cls-7" d="M40.76,209.43c-1.74-.27-2.85,1.89-2.87,3.27,0,2.69,1.55,5.54,3.19,7.58,1.34,1.67,3.5,3.52,5.67,3.95a3.13,3.13,0,0,0,.6.06c2.42,0,3.71-3.06,2.38-5.25"/><path class="cls-7" d="M75.63,197.05s-1.17,7.25-7.18,10.57c-5.57,3.08-1.21,13.34,5.65,8.59a12.52,12.52,0,0,0,1.35-1.08c5.25-4.93,3-12.39,3-12.39a3.65,3.65,0,0,0,2.63-3.35"/><path class="cls-7" d="M75.63,184.13s9.92,3.22,11.1,12.56c.69,5.42-4.86,5.52-5.66,2.7,0,0-.58-3.13-1.53-4.28"/><path class="cls-8" d="M121.81,317.81s1.5-8.94,13.74-8.36"/><path class="cls-8" d="M305.66,311.15s10.47-4,16.08,4.93"/><polyline class="cls-7" points="47.83 116.47 47.83 120.49 47.83 120.95"/><ellipse class="cls-9" cx="205.31" cy="116.63" rx="16.62" ry="19.8"/><ellipse class="cls-9" cx="234.14" cy="116.63" rx="16.11" ry="19.8"/><ellipse cx="229.71" cy="121.51" rx="4.6" ry="8.47"/><ellipse class="cls-10" cx="233.53" cy="119.5" rx="2.49" ry="2.6"/><ellipse cx="203.18" cy="121.51" rx="4.6" ry="8.47"/><ellipse class="cls-10" cx="207.01" cy="119.5" rx="2.49" ry="2.6"/><path class="cls-8" d="M208.62,88.37c4.07-.07,7.73,3.12,10.2,6.08,1.31-2.83,4.87-6,8-6.49"/><polygon points="156.61 250.63 154.07 259.29 182.65 264.48 186.07 251.02 156.61 250.63"/><polygon points="289.01 250.63 291.55 259.29 262.97 264.48 259.55 251.02 289.01 250.63"/><path class="cls-4" d="M298.49,121.58v.18h0a24.27,24.27,0,0,1-8.31,17.5c-5.07,4.34-11.84,6.53-20.2,6.53a57.94,57.94,0,0,1-8.82-.72,7.44,7.44,0,1,1,2.27-14.71c7.8,1.2,13.38,0,16.93-2.3a7.69,7.69,0,0,0,3.22-6.48,7.46,7.46,0,0,1,14.91,0Z"/><path class="cls-7" d="M298.49,121.58a7.46,7.46,0,0,0-14.91,0,7.69,7.69,0,0,1-3.22,6.48c-3.55,2.35-9.13,3.5-16.93,2.3a7.44,7.44,0,1,0-2.27,14.71,57.94,57.94,0,0,0,8.82.72c8.36,0,15.13-2.19,20.2-6.53a24.27,24.27,0,0,0,8.31-17.5h0Z"/><path class="cls-7" d="M291.08,121.76s0,20.39-29.28,16"/><line class="cls-7" x1="288.73" y1="121.76" x2="293.37" y2="121.76"/></svg>