<svg id="Layer_1" data-name="Layer 1" xmlns="http://www.w3.org/2000/svg" viewBox="0 0 400 400"><defs><style>.cls-1{fill:#fbdceb;}.cls-2{fill:#00ac94;}.cls-12,.cls-3{fill:#fff;}.cls-4{fill:red;}.cls-5{fill:#f99d36;}.cls-6{fill:#f3e5d4;}.cls-7{fill:#ed5d3a;}.cls-8{fill:#b35a9e;}.cls-10,.cls-11,.cls-9{fill:none;}.cls-10,.cls-11,.cls-12,.cls-9{stroke:#000;stroke-width:1.88px;}.cls-10,.cls-12,.cls-9{stroke-linecap:round;}.cls-9{stroke-linejoin:round;}.cls-10,.cls-11,.cls-12{stroke-miterlimit:10;}</style></defs><title>Desk_Dudes41</title><path class="cls-1" d="M266.48,244.37l23-4.8A106.09,106.09,0,0,1,270.24,217q-1.22-1.89-2.37-3.83a56,56,0,0,0,10.23-1.1c8.29,14,18.83,25.76,32.19,31.95l-16,3.53-120,26.59c-11.87-5.47-21.61-16.57-29.57-30.42,2.09-3,3.5-6.4,4.73-8.58A10.82,10.82,0,0,1,151,233c7,13.6,15.91,24.67,27,29.8l32.21-6.73,27.92-5.84Z"/><path class="cls-1" d="M304.71,256.05,291.88,259,176.39,285.45a108,108,0,0,1-35.29-37.92,16.09,16.09,0,0,0,3.63-3.82h0c8,13.85,17.7,25,29.57,30.42l120-26.59Z"/><path class="cls-1" d="M302.33,267.87l-124.1,27.48-3.36.75a94.58,94.58,0,0,1-15-12.61c-9.08-9.34-16.87-20.83-23.39-34.07a9.43,9.43,0,0,0,2.4-.64,10.53,10.53,0,0,0,2.2-1.25,108,108,0,0,0,35.29,37.92L291.88,259l.08.37Z"/><path class="cls-2" d="M280.14,283.62l-1.68,1.07,0,0-.9.57h0c-3.4-3.78-5.76-6.59-9.58-9.55l-35.73,7.8c20.84,7.23,35.73,29.24,35.73,29.24s.36-5.45,5.46-11.61c7-8.45,12.06-11,12.06-11A67.31,67.31,0,0,0,280.14,283.62Z"/><path class="cls-3" d="M267.77,190.92h-.07a171.07,171.07,0,0,1-6.7-19.19C263,178.11,265.19,184.58,267.77,190.92Z"/><path class="cls-1" d="M249.22,114.46a340.46,340.46,0,0,0,7.62,42.18l.08.33c1.19,4.79,2.54,9.73,4.07,14.73,0,0,0,0,0,0a171.07,171.07,0,0,0,6.7,19.19,49.79,49.79,0,0,1-10-.87h0a4,4,0,0,0-.3-1.11,2.3,2.3,0,0,0-1.69-1.24c-2.25-5.95-4.15-11.85-5.74-17.51h0a232.7,232.7,0,0,1-8.11-45.2l-27.08,2.09-89,6.89s.56,6.61,2,16.88c-5.14.1-10.06-1-12.53-4.66a6.48,6.48,0,0,0-.5-.67c-2.14-13.58-3.11-23.39-3.34-25.93l-.06-.64,5.84-.36,10.15-.63,8.21-.5,10.07-.62,8.26-.51,10.1-.62,8.25-.51,10.07-.62,8.47-.52,10.09-.62,8.25-.51,10.09-.62,8-.49,10.09-.62,7.63-.47,3.85-.24S248.93,111.91,249.22,114.46Z"/><path class="cls-4" d="M257.7,190.05a31.7,31.7,0,0,1,.29,3.36q-1.2-2.86-2.28-5.71a2.3,2.3,0,0,1,1.69,1.24,4,4,0,0,1,.3,1.11Z"/><path class="cls-2" d="M139,297.91c12.53-3,18.32-9.64,20.86-14.42a94.58,94.58,0,0,0,15,12.61l3.36-.75,0,.19a39.88,39.88,0,0,1-19.12,21.82c-4-.11-9,1.32-15.26,5.15l-.45.08.5-.41a26.44,26.44,0,0,0-3.25-10.06c-5.88-9.73-13.16-12.58-13.16-12.58,3.45-.21,7-2.14,9.75-3.44l1.06,1.11,0,0,.64.67Z"/><path class="cls-5" d="M270.24,217q-1.22-1.89-2.37-3.83a72.88,72.88,0,0,1-12.62-.8l-.25-.05a2.36,2.36,0,0,1-1.83,1c-2.6,0-3.09-1-3-2.29-3.3,2.22-7.35,2.71-11.3,2.36a46,46,0,0,1-15.53-4.77c5,3,6.37,5.9,3.75,8.4s-6.34,1.72-9.55-1.65c-3.67-3.82-5.43-6.12-3.27-10.57a7.29,7.29,0,0,1-2.72-3.67,7.12,7.12,0,0,1,.15-4.56,7.56,7.56,0,0,1,.84-1.71c-2.62.43-7.39-1.27-7.78-4.19-1.14-8.29,11.87-9.06,21.8-7.69.7.09,1.39.2,2.05.32v0c5.68-9.78,21.86-2.37,24,5.43l.14,0a4.61,4.61,0,0,1,2.94-.92c-2.25-5.95-4.15-11.85-5.74-17.51h0a232.7,232.7,0,0,1-8.11-45.2l-27.08,2.09-89,6.89s.56,6.61,2,16.88A52.92,52.92,0,0,0,144,147.6a8.55,8.55,0,0,1,11.09,4.79,8.23,8.23,0,0,1,.54,2.13,8.53,8.53,0,0,1-5.33,9,72.82,72.82,0,0,1-17.82,4.21c-.65.06-1.28.12-1.9.16a332.65,332.65,0,0,0,7.79,32.69,14.88,14.88,0,0,1,4.13-1.58c4-.72,7.94,1,7.39,5.11-.31,2.28-3.28,4.27-5.9,6a30.19,30.19,0,0,1,3.78-2c3-1.27,6.83-1.37,8.54,2.06,0,0,0,0,0,0a4.65,4.65,0,0,1-.9,5c-2.13,2.74-5.48,3.68-9.7,6.44v0c2.87-1.79,6.28-3.75,9.8-3.33s6.44,3.88,5,7.44c-.66,1.65-2.42,2.57-3.89,3.42A25.49,25.49,0,0,0,151,233c7,13.6,15.91,24.67,27,29.8l32.21-6.73,27.92-5.84,28.27-5.9,23-4.8A106.09,106.09,0,0,1,270.24,217Z"/><polygon class="cls-6" points="315.95 283.86 313.68 286.49 278.6 326.68 277.25 328.34 281.63 331.78 319.61 287.75 315.95 283.86"/><polygon class="cls-6" points="164.35 336.02 129.74 336.02 113.42 306.81 106.69 311.27 124.67 342.25 170.69 342.25 171.32 336.02 169.61 336.02 164.35 336.02"/><path class="cls-7" d="M285.48,290.16h0s-5.07,2.55-12.06,11c-5.1,6.16-5.46,11.61-5.46,11.61a26.76,26.76,0,0,0,10.64,13.91l35.08-40.19C303,268.38,289.41,278,285.48,290.16Z"/><path class="cls-7" d="M159.15,317.36c-4-.11-9,1.32-15.26,5.15-.49.3-1,.61-1.48.94l1-.86.5-.41a26.44,26.44,0,0,0-3.25-10.06c-5.88-9.73-13.16-12.58-13.16-12.58-10.55,0-14.11,7.27-14.11,7.27L129.74,336h39.87C173.29,330.72,170.63,317.68,159.15,317.36Z"/><path class="cls-3" d="M142.34,211.11c.55-.37,1.1-.73,1.66-1.07C143.42,210.41,142.85,210.77,142.34,211.11Z"/><path class="cls-3" d="M142.29,211.15l-.34.23Z"/><path class="cls-1" d="M130.61,167.85a332.65,332.65,0,0,0,7.79,32.69,48.07,48.07,0,0,0-9.29,6.79,368.79,368.79,0,0,1-10.45-40.19,41,41,0,0,0,8.46.83C128.24,168,129.41,167.93,130.61,167.85Z"/><path class="cls-6" d="M258,193.41q-1.2-2.86-2.28-5.71a4.61,4.61,0,0,0-2.94.92l-.14,0c-2.17-7.8-18.35-15.21-24-5.43v0c-.66-.12-1.35-.23-2.05-.32-9.93-1.37-22.94-.6-21.8,7.69.39,2.92,5.16,4.62,7.78,4.19a7.56,7.56,0,0,0-.84,1.71,7.12,7.12,0,0,0-.15,4.56,7.29,7.29,0,0,0,2.72,3.67c-2.16,4.45-.4,6.75,3.27,10.57,3.21,3.37,7,4.12,9.55,1.65s1.25-5.38-3.75-8.4a46,46,0,0,0,15.53,4.77c4,.35,8-.14,11.3-2.36-.07,1.24.42,2.3,3,2.29a2.36,2.36,0,0,0,1.83-1C257.63,209.18,258.23,199.32,258,193.41Z"/><path class="cls-6" d="M155.57,218.28c-3.52-.42-6.93,1.54-9.8,3.33l-.5.31.49-.33c4.22-2.76,7.57-3.7,9.7-6.44a4.65,4.65,0,0,0,.9-5s0,0,0,0c-1.71-3.43-5.57-3.33-8.54-2.06a30.19,30.19,0,0,0-3.78,2c2.62-1.68,5.59-3.67,5.9-6,.55-4.11-3.38-5.83-7.39-5.11a14.88,14.88,0,0,0-4.13,1.58,48.07,48.07,0,0,0-9.29,6.79,31,31,0,0,0-2.24,2.25l-.78.9c-1,1.19-2,2.35-2.9,3.59h0A16.64,16.64,0,0,0,119.75,225h-.21c-2-.24-3.13.45-3.68,1.78a6.86,6.86,0,0,0-.3,3.4c1.62,14.09,8.51,19.26,13.33,21.28l.93.36c3.68,1.32,5.15-.62,3.4-3a3.61,3.61,0,0,1-1.1-1.16,6.88,6.88,0,0,1,1.1,1.16,4.84,4.84,0,0,0,3.28.62,9.43,9.43,0,0,0,2.4-.64,10.53,10.53,0,0,0,2.2-1.25,16.09,16.09,0,0,0,3.63-3.82h0c2.09-3,3.5-6.4,4.73-8.58A10.82,10.82,0,0,1,151,233a25.49,25.49,0,0,1,5.65-3.9c1.47-.85,3.23-1.77,3.89-3.42C162,222.16,159,218.69,155.57,218.28Zm-13.67-6.86-.33.23.33-.23,0,0Zm.44-.31c.55-.37,1.1-.73,1.66-1.07C143.42,210.41,142.85,210.77,142.34,211.11Z"/><path class="cls-1" d="M129.11,207.33a31,31,0,0,0-2.24,2.25l-.78.9a351,351,0,0,1-9.19-43.76c.57.15,1.16.29,1.76.42A368.79,368.79,0,0,0,129.11,207.33Z"/><path class="cls-1" d="M126.09,210.48c-1,1.19-2,2.35-2.9,3.59h0q-2.22-7.87-4-16.18-2.69-12.39-4.45-25.66-.42-3.21-.8-6.45a30.61,30.61,0,0,0,3,.94A351,351,0,0,0,126.09,210.48Z"/><path class="cls-1" d="M256.84,156.64l.08.33c.37,1.47,2,7.63,4.07,14.73,0,0,0,0,0,0,1.95,6.38,4.19,12.85,6.77,19.19h-.07a49.79,49.79,0,0,1-10-.87,31.7,31.7,0,0,1,.29,3.36c.24,5.91-.36,15.77-3,18.9l.25.05a72.88,72.88,0,0,0,12.62.8,56,56,0,0,0,10.23-1.1c7.93-1.68,15.43-5.63,17.73-14.23C300.92,178.86,288.62,159.56,256.84,156.64Z"/><path class="cls-1" d="M115.56,230.14a6.86,6.86,0,0,1,.3-3.4l-.41-.06c-.77,0-7.27,0-9.21-5.47-3.79-10.79,4.14-20.21,12.93-23.32q-2.69-12.39-4.45-25.66h0c-18.75,5.92-38.5,32.54-30.91,59.44,10,35.53,44.81,19.87,45.08,19.75C124.07,249.4,117.18,244.23,115.56,230.14Z"/><path class="cls-8" d="M155.66,154.52a8.23,8.23,0,0,0-.54-2.13A8.55,8.55,0,0,0,144,147.6a52.92,52.92,0,0,1-16.25,3.25c-5.14.1-10.06-1-12.53-4.66a6.48,6.48,0,0,0-.5-.67,7.72,7.72,0,0,0-.78-.83,8.54,8.54,0,0,0-10.57-.82,8.55,8.55,0,0,0-2.33,11.86,26.4,26.4,0,0,0,12.85,10.05,30.61,30.61,0,0,0,3,.94c.57.15,1.16.29,1.76.42a41,41,0,0,0,8.46.83c1.12,0,2.29,0,3.49-.12.62,0,1.25-.1,1.9-.16a72.82,72.82,0,0,0,17.82-4.21A8.53,8.53,0,0,0,155.66,154.52Z"/><path class="cls-3" d="M108.69,152.69l-.09.07-.08-.09Z"/><path class="cls-9" d="M278.46,284.69l1.68-1.07a67.31,67.31,0,0,1,5.34,6.54s-5.07,2.55-12.06,11c-5.1,6.16-5.46,11.61-5.46,11.61s-14.89-22-35.73-29.24"/><path class="cls-9" d="M268,275.73c3.82,3,6.18,5.77,9.58,9.55"/><path class="cls-10" d="M284.47,299a21.29,21.29,0,0,1,1-8.82c3.93-12.21,17.51-21.78,28.2-3.67L278.6,326.68A26.76,26.76,0,0,1,268,312.77"/><polyline class="cls-10" points="313.68 286.49 315.95 283.86 319.61 287.75 281.63 331.78 277.25 328.34 278.6 326.68"/><path class="cls-9" d="M159.15,317.36a39.88,39.88,0,0,0,19.12-21.82"/><path class="cls-9" d="M143.44,322.59l.45-.08"/><path class="cls-9" d="M138.34,297.21l-1.06-1.11c-2.71,1.3-6.3,3.23-9.75,3.44"/><path class="cls-9" d="M159.89,283.49c-2.54,4.78-8.33,11.41-20.86,14.42h0l-.64-.67"/><path class="cls-10" d="M164.35,336H129.74l-16.32-29.21s3.56-7.27,14.11-7.27c0,0,7.28,2.85,13.16,12.58a26.44,26.44,0,0,1,3.25,10.06"/><path class="cls-10" d="M142.41,323.45c.5-.33,1-.64,1.48-.94,6.22-3.83,11.27-5.26,15.26-5.15,11.48.32,14.14,13.36,10.46,18.66"/><polyline class="cls-10" points="113.42 306.81 106.69 311.27 124.67 342.25 170.69 342.25 171.32 336.02 169.61 336.02 164.35 336.02"/><path class="cls-10" d="M144.73,243.71c8,13.85,17.7,25,29.57,30.42l120-26.59,16-3.53"/><path class="cls-10" d="M118.66,167.14a368.79,368.79,0,0,0,10.45,40.19"/><path class="cls-10" d="M111.41,119.59c.23,2.54,1.2,12.35,3.34,25.93"/><path class="cls-10" d="M141.1,247.53a108,108,0,0,0,35.29,37.92L291.88,259l12.83-2.94-10.37-8.51"/><path class="cls-10" d="M116.9,166.72a351,351,0,0,0,9.19,43.76"/><path class="cls-10" d="M111.35,119l.06.64c.78,8.77,1.63,17.12,2.56,25.1"/><path class="cls-10" d="M278.1,212.06c8.29,14,18.83,25.76,32.19,31.95"/><path class="cls-10" d="M256.92,157c1.19,4.79,2.54,9.73,4.07,14.73"/><path class="cls-10" d="M112,143.34q-.68-12-.68-24.39l5.84-.36,10.15-.63,8.21-.5,10.07-.62,8.26-.51,10.1-.62,8.25-.51,10.07-.62,8.47-.52,10.09-.62,8.25-.51,10.09-.62,8-.49,10.09-.62,7.63-.47,3.85-.24s.12,1.42.41,4a340.46,340.46,0,0,0,7.62,42.18"/><path class="cls-10" d="M123.19,214.07q-2.22-7.87-4-16.18-2.69-12.39-4.45-25.66-.42-3.21-.8-6.45"/><path class="cls-10" d="M292,259.36l10.37,8.51-124.1,27.48-3.36.75a94.58,94.58,0,0,1-15-12.61c-9.08-9.34-16.87-20.83-23.39-34.07"/><path class="cls-10" d="M117.19,118.48c-2.33-2-1.38-5.82,0-7.36a6.08,6.08,0,0,1,8.88-.11c1.56,1.58,1.93,4.49,1.24,6.95s-2.45,4.48-5.15,4.32"/><path class="cls-10" d="M135.53,117.15c-2.33-2-1.38-5.82,0-7.36a6.09,6.09,0,0,1,8.88-.11c1.6,1.63,1.95,4.65,1.18,7.16-.74,2.36-2.47,4.27-5.09,4.11"/><path class="cls-10" d="M153.87,116.09c-2.33-2-1.38-5.82,0-7.35a6.07,6.07,0,0,1,8.88-.11c1.59,1.6,1.95,4.59,1.2,7.08s-2.46,4.34-5.11,4.18"/><path class="cls-10" d="M172.21,114.91c-2.33-2-1.38-5.82,0-7.35a6.08,6.08,0,0,1,8.88-.12c1.6,1.62,1.95,4.64,1.18,7.14s-2.46,4.29-5.09,4.13"/><path class="cls-10" d="M190.76,113.79c-2.33-2-1.38-5.82,0-7.35a6.07,6.07,0,0,1,8.88-.11c1.59,1.61,2,4.61,1.19,7.11s-2.46,4.31-5.1,4.15"/><path class="cls-10" d="M209.1,112.68c-2.33-2-1.38-5.83,0-7.36a6.07,6.07,0,0,1,8.88-.11c1.59,1.61,2,4.61,1.19,7.1s-2.46,4.32-5.1,4.16"/><path class="cls-10" d="M227.23,111.56c-2.33-2-1.38-5.83,0-7.36a6.08,6.08,0,0,1,8.88-.11c1.59,1.61,2,4.61,1.19,7.11s-2.46,4.31-5.1,4.15"/><path class="cls-10" d="M244.94,110.44c-2.33-2-1.38-5.82,0-7.36a6.07,6.07,0,0,1,8.87-.11c2.82,2.86,3.11,10.89-4.63,11.49a14.71,14.71,0,0,1-2.7-.07"/><path class="cls-10" d="M114.72,172.23c-18.75,5.92-38.5,32.54-30.91,59.44,10,35.53,44.81,19.87,45.08,19.75h0"/><path class="cls-10" d="M119.17,197.89c-8.79,3.11-16.72,12.53-12.93,23.32,1.94,5.51,8.44,5.49,9.21,5.47h.07"/><path class="cls-10" d="M151,233c7,13.6,15.91,24.67,27,29.8l32.21-6.73,27.92-5.84,28.27-5.9,23-4.8"/><path class="cls-10" d="M145.76,221.59v0"/><path class="cls-10" d="M130.61,167.85a332.65,332.65,0,0,0,7.79,32.69"/><path class="cls-10" d="M125.73,134s.56,6.61,2,16.88"/><path class="cls-10" d="M267.87,213.16q1.15,1.93,2.37,3.83a106.09,106.09,0,0,0,19.2,22.58"/><path class="cls-10" d="M250,170.19c1.59,5.66,3.49,11.56,5.74,17.51"/><path class="cls-10" d="M125.73,134l89.05-6.89L241.86,125a232.7,232.7,0,0,0,8.11,45.2"/><path class="cls-10" d="M238.85,213.36c1.66,3.17,3.44,6.23,5.33,9.14,6.16,9.46,13.53,17.27,22.3,21.87l.12,0"/><path class="cls-10" d="M214.78,127.12s.91,8.89,3.37,21.86c1.36,7.18,3.2,15.62,5.62,24.5.85,3.11,1.77,6.28,2.77,9.47"/><path class="cls-10" d="M186.94,130s.81,8.64,3.24,21.48c1.4,7.39,3.33,16.17,5.95,25.49a234.75,234.75,0,0,0,8.59,25.26A152,152,0,0,0,218.05,228c5.67,8.61,12.31,16.21,20.09,21.93"/><path class="cls-10" d="M157,132.26s1.21,8.8,3.92,21.8c1.61,7.68,3.75,16.84,6.48,26.51,2.42,8.59,5.31,17.58,8.72,26.32a162.66,162.66,0,0,0,13.28,27.19c6,9.54,12.92,17.37,20.91,22h0"/><polyline class="cls-10" points="156.23 241.08 189.38 234.08 218.05 228.02 244.18 222.5 270.24 216.99"/><polyline class="cls-10" points="156.34 210.11 176.1 206.88 204.72 202.21 211.53 201.1"/><polyline class="cls-10" points="136.1 184.5 167.38 180.57 196.13 176.95 223.77 173.48 249.97 170.19 249.97 170.19"/><polyline class="cls-10" points="155.66 154.52 160.9 154.06 190.18 151.46 218.15 148.98 243.54 146.73"/><path class="cls-10" d="M235.49,185.09a33.66,33.66,0,0,0-6.9-1.82c-.66-.12-1.35-.23-2.05-.32-9.93-1.37-22.94-.6-21.8,7.69.39,2.92,5.16,4.62,7.78,4.19"/><path class="cls-10" d="M252.77,189.25a5.63,5.63,0,0,0-.14-.59c-2.17-7.8-18.35-15.21-24-5.43"/><path class="cls-10" d="M231.57,192.45s-.77-.24-2-.52c-4.14-.94-13.52-2.37-17,2.9a7.56,7.56,0,0,0-.84,1.71,7.12,7.12,0,0,0-.15,4.56,7.29,7.29,0,0,0,2.72,3.67"/><path class="cls-9" d="M223.32,208.59a46,46,0,0,0,15.53,4.77c4,.35,8-.14,11.3-2.36"/><polyline class="cls-9" points="223.31 208.58 223.31 208.59 223.31 208.59 223.31 208.59"/><path class="cls-9" d="M230.31,200.88a19.81,19.81,0,0,0-9.18-1.11,8.79,8.79,0,0,0-6.88,5c-2.16,4.45-.39,6.75,3.27,10.57,3.21,3.37,7,4.12,9.55,1.65s1.25-5.38-3.75-8.4h0"/><path class="cls-10" d="M257.7,190.05a31.7,31.7,0,0,1,.29,3.36c.24,5.91-.36,15.77-3,18.9a2.36,2.36,0,0,1-1.83,1c-2.6,0-3.1-1-3-2.29a24,24,0,0,1,.44-2.41s1.59-9.48,1.59-12.14"/><path class="cls-10" d="M252.77,188.62a4.61,4.61,0,0,1,2.94-.92,2.3,2.3,0,0,1,1.69,1.24,4,4,0,0,1,.3,1.11"/><path class="cls-10" d="M255.25,212.36a72.88,72.88,0,0,0,12.62.8,56,56,0,0,0,10.23-1.1c7.93-1.68,15.43-5.63,17.73-14.23,5.09-19-7.21-38.27-39-41.19l.08.33c.37,1.47,2,7.63,4.07,14.73,0,0,0,0,0,0a171.07,171.07,0,0,0,6.7,19.19"/><path class="cls-10" d="M257.7,190.05h0a49.79,49.79,0,0,0,10,.87h.07c3.88-.15,7.46-1.1,7.72-4"/><path class="cls-10" d="M141.53,211.68l-.5.38"/><path class="cls-10" d="M141.94,211.39l0,0-.33.23"/><path class="cls-10" d="M142.29,211.15l-.34.23"/><path class="cls-10" d="M144,210c-.58.37-1.15.73-1.66,1.07"/><path class="cls-10" d="M122.07,235.26A33.16,33.16,0,0,1,119.75,225a16.64,16.64,0,0,1,3.44-10.88h0c.88-1.24,1.88-2.4,2.9-3.59l.78-.9a31,31,0,0,1,2.24-2.25,48.07,48.07,0,0,1,9.29-6.79,14.88,14.88,0,0,1,4.13-1.58c4-.72,7.94,1,7.39,5.11-.31,2.28-3.28,4.27-5.9,6"/><path class="cls-10" d="M133.56,218.52a34.88,34.88,0,0,1,5.22-4.75c.88-.7,1.8-1.41,2.75-2.09l0,0,.33-.23,0,0h0l.34-.23.05,0c.55-.37,1.1-.73,1.66-1.07l0,0a30.19,30.19,0,0,1,3.78-2c3-1.27,6.83-1.37,8.54,2.06,0,0,0,0,0,0a4.65,4.65,0,0,1-.9,5c-2.13,2.74-5.48,3.68-9.7,6.44l-.49.33"/><path class="cls-10" d="M139.72,227.05a29.26,29.26,0,0,1,5.55-5.13l.5-.31c2.87-1.79,6.28-3.75,9.8-3.33s6.44,3.88,5,7.44c-.66,1.65-2.42,2.57-3.89,3.42A25.49,25.49,0,0,0,151,233a10.82,10.82,0,0,0-1.58,2.09c-1.23,2.18-2.64,5.61-4.73,8.58h0a16.09,16.09,0,0,1-3.63,3.82,10.53,10.53,0,0,1-2.2,1.25,9.43,9.43,0,0,1-2.4.64,4.84,4.84,0,0,1-3.28-.62,3.61,3.61,0,0,1-1.1-1.16"/><path class="cls-10" d="M119.54,225c-2-.24-3.13.45-3.68,1.78a6.86,6.86,0,0,0-.3,3.4c1.62,14.09,8.51,19.26,13.33,21.28l.93.36c3.68,1.32,5.15-.62,3.4-3a6.88,6.88,0,0,0-1.1-1.16"/><path class="cls-9" d="M194.39,179.46a77.49,77.49,0,0,0-8.72,9.71,59.26,59.26,0,0,0-7.94,13.68"/><path class="cls-9" d="M172.89,183.9s6.67,2.36,12.78,5.27c4.48,2.13,8.66,4.56,9.7,6.56"/><path class="cls-9" d="M138.34,297.21l0,0c.08.08.32.31.66.67,1.36,1.41,4.35,4.7,5.56,7.53"/><path class="cls-9" d="M278.46,284.69l0,0c-.08,0-.41.24-.9.57h0c-2,1.34-6.55,4.86-8.7,9.88"/><path class="cls-11" d="M130.61,167.85c-1.2.08-2.37.12-3.49.12a41,41,0,0,1-8.46-.83c-.6-.13-1.19-.27-1.76-.42a30.61,30.61,0,0,1-3-.94,26.4,26.4,0,0,1-12.85-10.05,8.55,8.55,0,0,1,11-12.39,8.46,8.46,0,0,1,1.94,1.35,7.72,7.72,0,0,1,.78.83,6.48,6.48,0,0,1,.5.67c2.47,3.67,7.39,4.76,12.53,4.66A52.92,52.92,0,0,0,144,147.6a8.55,8.55,0,0,1,11.09,4.79,8.23,8.23,0,0,1,.54,2.13,8.53,8.53,0,0,1-5.33,9,72.82,72.82,0,0,1-17.82,4.21C131.86,167.75,131.23,167.81,130.61,167.85Z"/><path class="cls-9" d="M108.6,152.76a19,19,0,0,0,4.34,3.28,27.7,27.7,0,0,0,2.62,1.32c.41.18.85.36,1.3.53a35.11,35.11,0,0,0,12.36,2.17,57.28,57.28,0,0,0,18.93-3.42"/><path class="cls-9" d="M106.65,154.31s1.77-3.18,4.22-3.34"/><line class="cls-9" x1="108.6" y1="152.76" x2="108.6" y2="152.76"/><path d="M120.54,335.13S90.5,333,92,338.79s32.74,4.4,32.74,4.4Z"/><path d="M171.44,343.17s130.87,1.87,129.35-4-128.62-4.11-128.62-4.11Z"/><ellipse class="cls-12" cx="163.49" cy="120.7" rx="17.49" ry="12.95" transform="translate(27.88 272.05) rotate(-84.58)"/><ellipse class="cls-12" cx="146.48" cy="119.38" rx="18.17" ry="13.46" transform="translate(13.79 253.92) rotate(-84.58)"/><polygon points="173.2 304.44 158.2 287.77 160.07 283.95 174.59 296.66 178.17 295.8 173.2 304.44"/><polygon points="245.57 289.68 270.25 278.22 266.6 275.78 233.91 283.86 245.57 289.68"/><ellipse cx="148.58" cy="126.64" rx="5.09" ry="3.26" transform="translate(-1.5 251.51) rotate(-80.21)"/><ellipse cx="168.09" cy="126.64" rx="5.09" ry="3.26" transform="translate(14.7 270.74) rotate(-80.21)"/><circle class="cls-3" cx="146.84" cy="123.23" r="1.67"/><circle class="cls-3" cx="166.43" cy="123.04" r="1.67"/><path d="M120.54,335.13S90.5,333,92,338.79s32.74,4.4,32.74,4.4Z"/><path d="M171.44,343.17s130.87,1.87,129.35-4-128.62-4.11-128.62-4.11Z"/><ellipse class="cls-12" cx="163.49" cy="120.7" rx="17.49" ry="12.95" transform="translate(27.88 272.05) rotate(-84.58)"/><ellipse class="cls-12" cx="146.48" cy="119.38" rx="18.17" ry="13.46" transform="translate(13.79 253.92) rotate(-84.58)"/><polygon points="173.2 304.44 158.2 287.77 160.07 283.95 174.59 296.66 178.17 295.8 173.2 304.44"/><polygon points="245.57 289.68 270.25 278.22 266.6 275.78 233.91 283.86 245.57 289.68"/><ellipse cx="148.58" cy="126.64" rx="5.09" ry="3.26" transform="translate(-1.5 251.51) rotate(-80.21)"/><ellipse cx="168.09" cy="126.64" rx="5.09" ry="3.26" transform="translate(14.7 270.74) rotate(-80.21)"/><circle class="cls-3" cx="146.84" cy="123.23" r="1.67"/><circle class="cls-3" cx="166.43" cy="123.04" r="1.67"/></svg>