<svg id="Layer_1" data-name="Layer 1" xmlns="http://www.w3.org/2000/svg" viewBox="0 0 400 400"><defs><style>.cls-1{fill:#fe973e;}.cls-2{fill:#4abfe8;}.cls-3{fill:#e04541;}.cls-4{fill:#66af5e;}.cls-5{fill:#fbdceb;}.cls-6{fill:#ed5d3a;}.cls-7{fill:#0098d9;}.cls-8{fill:#00ac94;}.cls-9{fill:#b35a9e;}.cls-10{fill:#fcdceb;}.cls-11{fill:#eb658a;}.cls-12,.cls-13{fill:none;stroke:#000;stroke-linecap:round;stroke-width:1.88px;}.cls-12{stroke-miterlimit:10;}.cls-13{stroke-linejoin:round;}.cls-14{fill:#fff;}</style></defs><title>Desk_Dudes50</title><path class="cls-1" d="M316.94,282.76a2.9,2.9,0,0,1-.41,3.81l-39.19,34.08a2.31,2.31,0,0,1-3.46-.46l-.2-.28a2.92,2.92,0,0,1,.41-3.82l.41-.36L313.27,282a2.31,2.31,0,0,1,3.46.45Z"/><path class="cls-2" d="M315.21,243.79l-4.72,6.43c-1.16-1.47-2.39-2.88-4.42-2.8-1.23,0-2.2.77-3.49.7-1.73-.08-3-1.19-4.08-2.54l4.72-6.43c1.11,1.35,2.36,2.46,4.09,2.54,1.29.06,2.25-.66,3.49-.7C312.82,240.91,314.05,242.32,315.21,243.79Z"/><path class="cls-2" d="M286.21,285.62c-2.94-10.48,6.42-26,16-25.48,8.57.48,14.31,12.62,11.87,21.17l-.82.71L274.5,315.73c-3.66,2.64-11.3-7.08-8.17-12.54a5.44,5.44,0,0,1,1.5-1.66l17.74-15.42.53-.47Z"/><path class="cls-3" d="M303.48,135,297.75,139c-4.9-2.15-4.19-8.1-4.19-8.1l6.25-2.7.1,0v0C299.84,128.81,299.38,133.52,303.48,135Z"/><path class="cls-2" d="M303.33,177.72s1,5.91-3.85,8.27l-5.89-3.81c4.18-1.68,3.32-6.65,3.28-6.89h.1Z"/><path class="cls-4" d="M302.52,216.5l-5.89,3.81c-4.81-2.36-3.85-8.27-3.85-8.27l6.36-2.43h.1v0C299.14,210.21,298.49,214.88,302.52,216.5Z"/><path class="cls-5" d="M277,130.47l.07-.05c8.94-2.12,11.17,12.25,9.33,16-1,2-2.62,2.67-4.12,2.16a4.79,4.79,0,0,1-2.76-2.93l-.11,0a6.25,6.25,0,0,1-.35.77c-1.72,3.18-7.73,1.08-8.31-2.06s-2.73-6.36-5.88-6.93c-2.69-.49-5.23.93-7,3.13-1.13-3.86-.9-10.1,2.52-12.28a4.87,4.87,0,0,1,6.57,1C267.78,126.62,273.65,125.93,277,130.47Z"/><path class="cls-5" d="M266.08,278.49l9.18-6.88,10.31,14.5-17.74,15.42a5.44,5.44,0,0,0-1.5,1.66l-.09-.05L256.18,285.9Z"/><path class="cls-5" d="M270.79,144.34c.58,3.14,6.59,5.24,8.31,2.06a6.25,6.25,0,0,0,.35-.77l.11,0a4.79,4.79,0,0,0,2.76,2.93c2.62,4.93.05,10.64-3.3,11,3.09.29,2.33,5-1.26,4.53l-.23,0-18-3.06a2.39,2.39,0,0,1-1.08-.43c-1.59-1.09-1.92-3.78.44-4l-.23-.17c-3.41-3.41-3.56-7.72-2.86-11.38a10.59,10.59,0,0,1,2.1-4.52c1.74-2.2,4.28-3.62,7-3.13C268.06,138,270.16,141.09,270.79,144.34Z"/><path class="cls-2" d="M273.58,103.14l7,3.88c-.45,1.68-1.12,3.21-2.65,4-1.15.59-2.33.33-3.47.8-1.87.78-2.4,2.58-2.85,4.39l-7-3.88c.44-1.82,1-3.61,2.84-4.38,1.15-.48,2.32-.22,3.47-.82C272.46,106.35,273.13,104.82,273.58,103.14Z"/><path class="cls-3" d="M270.94,199.27l7,3.88c-.44,1.69-1.11,3.22-2.65,4-1.15.6-2.33.34-3.47.81-1.87.78-2.4,2.57-2.85,4.39l-7-3.88c.44-1.82,1-3.61,2.85-4.39,1.14-.48,2.31-.21,3.47-.81C269.82,202.49,270.49,201,270.94,199.27Z"/><path class="cls-3" d="M277.76,164.15v0s-12.48,57.14-66.33,25.08L211,189c3.24-5.42,6.7-11.24,10.2-17.11l0,0c30.93,19.84,37.2-11,37.26-11.29a2.39,2.39,0,0,0,1.08.43l18,3.06Z"/><path class="cls-3" d="M266.08,278.49l-9.9,7.41-6.63-11.35c5.57,1,12.16-.53,19.81-6.73a21.22,21.22,0,0,0,1.91-1.74h0l.15.14,3.83,5.39Z"/><path class="cls-4" d="M249.55,274.55c-10.22-1.82-17-12.15-20.24-17.64-5.26-8.79-20-35.45-20-35.45a5.67,5.67,0,0,1-.72-3,5.94,5.94,0,0,1,.24-1.43l3.61-12.22.5-1.69a1.87,1.87,0,0,1,3.13-.74l6.18,7.07c6,6.89,13.27,5.9,13.27,5.9,13.09-.37,25.69,1.29,33.56,12,9.09,12.38,11.93,28.78,2.22,38.74h0a21.22,21.22,0,0,1-1.91,1.74C261.71,274,255.12,275.55,249.55,274.55ZM262,263.65c8-4.49,9-16.92,2.53-27.31s-18.14-15-26-10.33-9,16.92-2.54,27.31S250.59,270,262,263.65Z"/><path class="cls-2" d="M252.11,113.31a11.25,11.25,0,0,1-1.12,8.18c-4.14,7.22-17.18,29.19-29.81,50.39-3.5,5.87-7,11.69-10.2,17.11l-2,3.37-.07-.25L201,180.87h0l48.93-69.4C250.83,110.91,251.67,111.77,252.11,113.31Z"/><path class="cls-3" d="M245.27,87.27s4.15,4.33,1.54,9l-7,.21c2.48-3.74-1-7.32-1.21-7.52h0l.08-.06Z"/><path class="cls-4" d="M231.52,302.92l-2.65,7.53c-1.86-.13-3.72-.35-4.8-2.07-.66-1-.6-2.24-1.38-3.28-1.05-1.38-2.67-1.78-4.4-1.94l2.64-7.53c1.74.16,3.36.56,4.4,1.94.79,1,.73,2.24,1.39,3.29C227.8,302.57,229.66,302.79,231.52,302.92Z"/><path class="cls-5" d="M215.16,121.71c6.14,1.29,6.07,8.23,4.54,12s-5.17,8-15.23,9.48c-6.83,1-14.71-1.58-18-8-2.11-4.09-.28-11,5.27-10.48,2.33.22,4.35,1.56,6.71,1.8a12.34,12.34,0,0,0,8-2.26C209,122.44,211.78,121,215.16,121.71Z"/><path class="cls-2" d="M217,262.89l-.2,7c-4.67,2.62-9-1.52-9-1.52l1.6-6.62h0l.08-.07.13.13h0C210.38,262.49,213.64,265.13,217,262.89Z"/><path class="cls-2" d="M209,192.36l3.45,12.43L208.81,217a5.94,5.94,0,0,0-.24,1.43L201,205.74Z"/><path class="cls-2" d="M209,192.36h0l-8,13.38-8-13.38.07-.25L201,180.87l7.92,11.24Zm-5.59.36a2.64,2.64,0,1,0-2.64,2.64A2.64,2.64,0,0,0,203.38,192.72Z"/><path class="cls-3" d="M203,247.68l-5.89,3.82c-4.8-2.36-3.85-8.27-3.85-8.27l6.37-2.44h.1a.06.06,0,0,0,0,0h0C199.64,241.39,199,246.07,203,247.68Z"/><path class="cls-2" d="M200.74,190.08a2.64,2.64,0,1,1-2.63,2.64A2.64,2.64,0,0,1,200.74,190.08Z"/><path class="cls-2" d="M201,180.87l-7.92,11.24-.07.25L191,189,180.8,171.91c-12.64-21.21-25.69-43.19-29.83-50.42-2.77-4.81-1.1-11.33,1.09-10L201,180.87Z"/><path class="cls-2" d="M193,192.36l8,13.38c-4.58,7.67-7.54,12.63-7.59,12.7a5.86,5.86,0,0,0-.24-1.43l-3.61-12.22Z"/><path class="cls-4" d="M193.39,218.44a5.58,5.58,0,0,1-.72,3s-14.76,26.66-20,35.45c-3.25,5.44-9.87,15.6-19.91,17.58-5.63,1.11-12.34-.35-20.13-6.67a19.63,19.63,0,0,1-1.78-1.6c-9.88-9.94-7.06-26.44,2.07-38.88,7.88-10.72,20.47-12.38,33.56-12,0,0,7.26,1,13.27-5.9l6.18-7.07a1.87,1.87,0,0,1,3.13.74l.5,1.69L193.15,217a5.86,5.86,0,0,1,.24,1.43ZM166,253.32c6.49-10.39,5.36-22.62-2.53-27.31s-19.54-.06-26,10.33-5.48,22.82,2.53,27.31C151.38,270,159.48,263.71,166,253.32Z"/><path class="cls-3" d="M191,189l-.41.23c-53.86,32.05-66.27-25.08-66.27-25.08v0l.17,0,17.95-3.06a2.55,2.55,0,0,0,1.09-.43c.06.3,6.32,31.13,37.26,11.29Z"/><path class="cls-2" d="M185.73,281.68l-1,6.74-.13,0c-.58-.45-4.25-3.09-7.53-.42l-.48-7C181,278,185.73,281.68,185.73,281.68Z"/><path class="cls-4" d="M164.18,304.55c1.11,1.7.53,3.48-.12,5.23l-7.95-.74c.65-1.75,1.23-3.53.13-5.22-.68-1-1.8-1.49-2.41-2.63-.82-1.53-.51-3.17.07-4.81l7.95.74c-.58,1.64-.89,3.28-.07,4.8C162.39,303.06,163.51,303.51,164.18,304.55Z"/><path class="cls-3" d="M160.92,94.54l-7,3.88c-.44-1.81-1-3.6-2.85-4.38-1.14-.48-2.32-.22-3.47-.81-1.53-.8-2.2-2.33-2.65-4l7-3.88c.45,1.68,1.12,3.21,2.66,4,1.15.59,2.32.33,3.47.81C159.94,90.93,160.47,92.73,160.92,94.54Z"/><path class="cls-3" d="M136.18,278.49,127,271.61l3.83-5.39h0a19.63,19.63,0,0,0,1.78,1.6c7.79,6.32,14.5,7.78,20.13,6.67l-6.66,11.42Z"/><path class="cls-5" d="M143.72,156.75c1.65.61,1.25,2.89-.18,3.87a2.55,2.55,0,0,1-1.09.43l-17.95,3.06-.17,0c-3.64.52-4.43-4.22-1.32-4.52-3.35-.38-5.92-6.09-3.31-11h0a4.8,4.8,0,0,0,2.77-2.93l.11,0h0a6.12,6.12,0,0,0,.34.76c1.73,3.18,7.74,1.08,8.31-2.06s2.73-6.36,5.89-6.93c2.68-.48,5.22.93,7,3.12a10.77,10.77,0,0,1,2.11,4.53c.7,3.66.54,8-2.86,11.38Z"/><path class="cls-5" d="M136.18,278.49l9.9,7.42L136,303.14h0l-.09.05h0a5.29,5.29,0,0,0-1.49-1.66l-17.74-15.42L127,271.61Z"/><path class="cls-5" d="M122.58,145.64h0l-.11,0a4.8,4.8,0,0,1-2.77,2.93c-1.49.51-3.13-.13-4.12-2.16-1.83-3.78.39-18.14,9.33-16l.08.05c3.38-4.54,9.26-3.85,10-1.2a4.86,4.86,0,0,1,6.57-1c3.43,2.18,4,8.14,2.88,12l-.36.27c-1.74-2.19-4.28-3.6-7-3.12-3.16.57-5.26,3.68-5.89,6.93s-6.58,5.24-8.31,2.06A6.12,6.12,0,0,1,122.58,145.64Z"/><path class="cls-2" d="M116.05,285.61l.1,0,.54.47,17.74,15.42a5.29,5.29,0,0,1,1.49,1.66h0c3.13,5.46-4.51,15.18-8.17,12.54L89,282h0l-.81-.7c-2.43-8.55,3.3-20.69,11.87-21.17,9.59-.54,18.94,15,16,25.45Z"/><path class="cls-1" d="M128.17,316.09a2.92,2.92,0,0,1,.41,3.82l-.21.28a2.31,2.31,0,0,1-3.46.46L85.73,286.57a2.89,2.89,0,0,1-.41-3.81l.2-.29A2.31,2.31,0,0,1,89,282h0l38.78,33.71Z"/><path class="cls-4" d="M126.83,200.19l.07.07c-.28.33-3.33,4.11-.61,7.58l-7,.34c-3-4.45.82-9.08.82-9.08Z"/><path class="cls-2" d="M119,101.92l-5.89,3.81c-4.81-2.36-3.85-8.27-3.85-8.27L115.57,95h.1v0C115.57,95.63,114.92,100.3,119,101.92Z"/><path class="cls-2" d="M106.72,235.69l-.2,7c-4.67,2.62-9-1.52-9-1.52l1.6-6.62h0l.07-.08.14.14a7.29,7.29,0,0,0,4.55,1.95A5.05,5.05,0,0,0,106.72,235.69Z"/><path class="cls-3" d="M98,200l4.6,6.53c-1.76.63-3.49,1.35-4.06,3.29-.35,1.19,0,2.33-.44,3.54-.62,1.61-2.07,2.44-3.7,3.06l-4.6-6.52c1.63-.62,3.08-1.45,3.7-3.06.47-1.21.09-2.35.44-3.54C94.5,201.33,96.23,200.61,98,200Z"/><path class="cls-3" d="M101.09,129.29l-5.73,4.06c-4.9-2.16-4.19-8.11-4.19-8.11l6.25-2.69.1,0v0C97.45,123.15,97,127.84,101.09,129.29Z"/><path class="cls-2" d="M99.49,170.1l-4.73,6.44c-1.16-1.47-2.39-2.88-4.41-2.81-1.24.05-2.2.77-3.5.71-1.72-.08-3-1.19-4.08-2.54l4.73-6.43c1.11,1.34,2.35,2.46,4.08,2.54,1.3.06,2.26-.67,3.49-.71C97.1,167.23,98.33,168.64,99.49,170.1Z"/><path class="cls-6" d="M316.94,282.75a2.92,2.92,0,0,1-.41,3.82l-39.19,34.08a2.31,2.31,0,0,1-3.46-.46l-.2-.28a2.92,2.92,0,0,1,.41-3.82l.41-.36L313.27,282a2.32,2.32,0,0,1,3.47.45Z"/><path class="cls-6" d="M315.21,243.79l-4.72,6.43c-1.16-1.47-2.39-2.88-4.42-2.81-1.23.05-2.19.78-3.49.71-1.73-.08-3-1.19-4.08-2.54l4.73-6.43c1.1,1.35,2.35,2.46,4.08,2.54,1.29.06,2.25-.66,3.49-.71C312.82,240.91,314.05,242.32,315.21,243.79Z"/><path class="cls-7" d="M303.33,177.72s1,5.91-3.85,8.27l-5.89-3.81c4.18-1.68,3.32-6.65,3.28-6.89h.1Z"/><path class="cls-6" d="M299.81,128.22l.1,0v0c-.07.55-.53,5.25,3.57,6.7L297.75,139c-4.9-2.15-4.19-8.1-4.19-8.1Z"/><path class="cls-8" d="M299.14,209.61h.1v0c-.09.55-.75,5.22,3.28,6.84l-5.89,3.81c-4.81-2.36-3.85-8.27-3.85-8.27Z"/><path class="cls-8" d="M285.57,286.1l.53-.46.11,0c-2.94-10.48,6.42-26,16-25.48,8.57.48,14.3,12.62,11.87,21.16l-.83.72L274.5,315.73c-3.66,2.64-11.3-7.09-8.17-12.54a5.45,5.45,0,0,1,1.5-1.66Z"/><path class="cls-9" d="M275.26,271.61l10.31,14.49-17.74,15.43a5.45,5.45,0,0,0-1.5,1.66l-.09-.05L256.18,285.9l9.9-7.41Z"/><path class="cls-7" d="M280.55,107c-.45,1.68-1.11,3.21-2.65,4-1.15.59-2.33.33-3.47.8-1.87.78-2.4,2.58-2.85,4.39l-7-3.88c.44-1.82,1-3.61,2.84-4.39,1.15-.47,2.32-.21,3.47-.81,1.54-.79,2.21-2.32,2.66-4Z"/><path class="cls-10" d="M256.18,285.9l-6.63-11.35c5.57,1,12.16-.53,19.81-6.73a21.22,21.22,0,0,0,1.91-1.74h0l.15.15,3.83,5.39-9.18,6.88Z"/><path class="cls-9" d="M279.45,145.63a5.05,5.05,0,0,1-.35.77c-1.72,3.18-7.73,1.08-8.31-2.06s-2.73-6.36-5.88-6.93c-2.69-.49-5.23.93-7,3.13-1.13-3.86-.9-10.1,2.52-12.28a4.87,4.87,0,0,1,6.57,1c.75-2.65,6.63-3.34,10,1.2h0l.07-.05c8.95-2.12,11.17,12.24,9.34,16-1,2-2.63,2.66-4.13,2.16a4.84,4.84,0,0,1-2.76-2.93Z"/><path class="cls-9" d="M270.79,144.34c.58,3.14,6.59,5.24,8.31,2.06a5.05,5.05,0,0,0,.35-.77l.11,0a4.84,4.84,0,0,0,2.76,2.93c2.62,4.93.05,10.64-3.3,11,3.09.3,2.33,5-1.26,4.54l-.23,0-18-3.06a2.51,2.51,0,0,1-1.08-.43c-1.54-1.05-1.89-3.61.23-4l0-.2c-3.41-3.41-3.56-7.72-2.86-11.38a10.59,10.59,0,0,1,2.1-4.52c1.74-2.2,4.28-3.62,7-3.13C268.06,138,270.16,141.09,270.79,144.34Z"/><path class="cls-11" d="M245.27,87.27s4.15,4.33,1.54,9l-7,.21c2.47-3.74-1-7.32-1.22-7.52h0l.08-.06Z"/><path class="cls-10" d="M221.23,171.9c30.93,19.85,37.2-11,37.26-11.28a2.51,2.51,0,0,0,1.08.43l18,3.06.23,0v0s-12.48,57.13-66.33,25.08L211,189h0l10.2-17.11Z"/><path class="cls-8" d="M231.52,302.92l-2.64,7.53c-1.87-.13-3.73-.35-4.81-2.07-.66-1-.6-2.24-1.38-3.28-1.05-1.38-2.67-1.78-4.4-1.94l2.64-7.53c1.74.16,3.36.56,4.4,1.94.79,1,.73,2.24,1.39,3.29C227.8,302.57,229.66,302.79,231.52,302.92Z"/><path class="cls-7" d="M209,192.36l3.45,12.43L208.81,217a5.86,5.86,0,0,0-.24,1.43L201,205.74Z"/><path class="cls-7" d="M209.43,261.76h0l.08-.06.13.13h0c.74.67,4,3.31,7.38,1.06l-.2,7c-4.67,2.62-9-1.53-9-1.53Z"/><path class="cls-8" d="M208.57,218.44a5.86,5.86,0,0,1,.24-1.43l3.61-12.22.5-1.69a1.87,1.87,0,0,1,3.13-.74l6.18,7.07c6,6.89,13.27,5.9,13.27,5.9,13.09-.37,25.69,1.29,33.57,12,9.08,12.38,11.92,28.78,2.21,38.73h0a21.22,21.22,0,0,1-1.91,1.74c-7.65,6.2-14.24,7.72-19.81,6.73-10.22-1.82-17-12.15-20.24-17.64-5.26-8.79-20-35.45-20-35.45A5.67,5.67,0,0,1,208.57,218.44ZM262,263.65c8-4.49,9-16.92,2.53-27.31s-18.14-15-26-10.33-9,16.92-2.53,27.31S250.59,270,262,263.65Z"/><path class="cls-7" d="M200.75,190.08a2.64,2.64,0,1,1-2.64,2.64A2.64,2.64,0,0,1,200.75,190.08Z"/><path class="cls-11" d="M199.73,240.84h0c-.09.55-.75,5.23,3.28,6.84l-5.89,3.81c-4.8-2.35-3.84-8.27-3.84-8.27l6.36-2.43h.1A.06.06,0,0,0,199.73,240.84Z"/><path class="cls-11" d="M198.41,126.48a12.4,12.4,0,0,0,8-2.26c2.55-1.78,5.35-3.22,8.73-2.51,6.14,1.28,6.07,8.23,4.54,12s-5.16,8-15.22,9.49c-6.84,1-14.72-1.58-18-8-2.11-4.1-.27-11,5.27-10.48C194,124.9,196.05,126.24,198.41,126.48Z"/><path class="cls-7" d="M249.91,111.47c.93-.56,1.76.3,2.2,1.84a11.29,11.29,0,0,1-1.11,8.18c-4.15,7.22-17.19,29.19-29.82,50.39L211,189h0l-2,3.37h0l-8,13.38-7.59,12.7a5.86,5.86,0,0,0-.24-1.43l-3.61-12.22L193,192.36l.07-.25L201,180.87h0Zm-46.52,81.25a2.64,2.64,0,1,0-2.64,2.64A2.64,2.64,0,0,0,203.39,192.72Z"/><path class="cls-7" d="M184.64,288.45c-.58-.45-4.25-3.09-7.53-.42l-.47-7c4.39-3.06,9.09.65,9.09.65l-1,6.74Z"/><path class="cls-7" d="M180.8,171.9c-12.63-21.2-25.69-43.18-29.83-50.41-2.76-4.82-1.1-11.33,1.09-10L201,180.87h0l-7.92,11.24-.07.25L191,189h0C187.76,183.59,184.29,177.78,180.8,171.9Z"/><path class="cls-8" d="M164.18,304.55c1.11,1.7.53,3.48-.12,5.23l-7.95-.74c.66-1.75,1.23-3.53.13-5.23-.68-1-1.8-1.48-2.41-2.62-.82-1.53-.51-3.17.07-4.81l7.95.73c-.58,1.65-.89,3.29-.07,4.81C162.39,303.06,163.51,303.51,164.18,304.55Z"/><path class="cls-6" d="M160.92,94.54l-7,3.88c-.44-1.81-1-3.61-2.84-4.38-1.15-.48-2.33-.22-3.48-.81-1.53-.8-2.2-2.33-2.65-4l7-3.88c.44,1.68,1.11,3.21,2.65,4,1.15.6,2.33.34,3.47.82C159.94,90.93,160.47,92.72,160.92,94.54Z"/><path class="cls-10" d="M190.6,189.26c-53.2,31.66-66-23.7-66.26-25v-.07l.17,0,17.95-3.06a2.55,2.55,0,0,0,1.09-.43c.06.3,6.32,31.13,37.26,11.28,3.49,5.88,7,11.69,10.2,17.12Z"/><path class="cls-8" d="M139.94,263.65c11.44,6.39,19.54.06,26-10.33s5.36-22.62-2.53-27.31-19.54-.06-26,10.33S131.93,259.16,139.94,263.65Zm-9.11,2.57c-9.88-9.94-7.06-26.44,2.07-38.88,7.88-10.72,20.47-12.38,33.56-12,0,0,7.26,1,13.27-5.9l6.18-7.07a1.87,1.87,0,0,1,3.13.74l.5,1.69L193.15,217a5.86,5.86,0,0,1,.24,1.43h0a5.58,5.58,0,0,1-.72,3s-14.76,26.66-20,35.45c-3.25,5.43-9.87,15.6-19.91,17.58-5.63,1.11-12.34-.35-20.13-6.67A21.25,21.25,0,0,1,130.83,266.22Z"/><path class="cls-10" d="M146.08,285.9l-9.9-7.41L127,271.61l3.83-5.39h0a21.25,21.25,0,0,0,1.78,1.6c7.79,6.32,14.5,7.78,20.13,6.67Z"/><path class="cls-9" d="M136.18,278.49l9.9,7.41L136,303.14h0l-.1,0a5.37,5.37,0,0,0-1.49-1.65L116.69,286.1,127,271.61Z"/><path class="cls-9" d="M131.23,144.34c-.57,3.14-6.58,5.24-8.31,2.06a6.12,6.12,0,0,1-.34-.76l-.11,0a4.8,4.8,0,0,1-2.77,2.93c-1.49.5-3.13-.13-4.12-2.16-1.83-3.78.39-18.14,9.33-16l.07.05h0c3.38-4.54,9.26-3.85,10-1.2a4.86,4.86,0,0,1,6.57-1c3.43,2.18,4,8.14,2.88,12l-.5.09a7.34,7.34,0,0,0-6.82-2.94C134,138,131.87,141.09,131.23,144.34Z"/><path class="cls-8" d="M119.28,208.18c-3-4.45.82-9.08.82-9.08l6.73,1.09.07.07c-.28.33-3.33,4.11-.61,7.58Z"/><path class="cls-9" d="M123,159.61c-3.35-.37-5.92-6.08-3.31-11h0a4.8,4.8,0,0,0,2.77-2.93l.11,0a6.12,6.12,0,0,0,.34.76c1.73,3.18,7.74,1.08,8.31-2.06s2.73-6.36,5.89-6.93a7.34,7.34,0,0,1,6.82,2.94l.14.18a10.71,10.71,0,0,1,2.11,4.53c.7,3.66.54,8-2.86,11.38l0,.2a1.8,1.8,0,0,1,.43.11c1.66.61,1.25,2.89-.18,3.87a2.55,2.55,0,0,1-1.09.43l-17.95,3.06-.17,0C120.69,164.66,119.9,159.91,123,159.61Z"/><path class="cls-8" d="M88.16,281.31c-2.43-8.55,3.3-20.69,11.87-21.17,9.59-.55,18.94,15,16,25.45v0l.1,0h0l.54.46,17.74,15.43a5.37,5.37,0,0,1,1.49,1.65h0c3.13,5.45-4.51,15.18-8.17,12.54L89,282h0Z"/><path class="cls-7" d="M115.57,95h.11a.15.15,0,0,0,0,.06c-.1.54-.75,5.22,3.28,6.84l-5.89,3.81c-4.8-2.36-3.85-8.27-3.85-8.27Z"/><path class="cls-6" d="M98,200l4.6,6.53c-1.76.63-3.48,1.35-4.06,3.29-.35,1.19,0,2.33-.44,3.54-.62,1.61-2.07,2.44-3.7,3.06l-4.6-6.52c1.63-.62,3.08-1.45,3.7-3.06.48-1.21.09-2.35.44-3.54C94.5,201.33,96.23,200.61,98,200Z"/><path class="cls-11" d="M101.09,129.29l-5.73,4.06c-4.9-2.16-4.19-8.11-4.19-8.11l6.25-2.7.1,0h0v0C97.45,123.14,97,127.84,101.09,129.29Z"/><path class="cls-7" d="M99.49,170.1l-4.73,6.43c-1.16-1.46-2.39-2.87-4.41-2.8-1.24.05-2.2.77-3.49.71-1.73-.09-3-1.2-4.09-2.54l4.73-6.43c1.11,1.34,2.35,2.45,4.08,2.54,1.3.06,2.26-.67,3.49-.71C97.1,167.23,98.33,168.64,99.49,170.1Z"/><path class="cls-6" d="M89,282h0l38.78,33.71.41.36a2.92,2.92,0,0,1,.41,3.82l-.2.28a2.32,2.32,0,0,1-3.47.46L85.73,286.57a2.9,2.9,0,0,1-.41-3.82l.2-.28A2.31,2.31,0,0,1,89,282Z"/><path class="cls-12" d="M235.5,215.33c13.09-.37,25.69,1.29,33.57,12,9.08,12.38,11.92,28.78,2.21,38.73h0a21.22,21.22,0,0,1-1.91,1.74c-7.65,6.2-14.24,7.72-19.81,6.73-10.22-1.82-17-12.15-20.24-17.64-5.26-8.79-20-35.45-20-35.45a5.67,5.67,0,0,1-.72-3,5.86,5.86,0,0,1,.24-1.43l3.61-12.22.5-1.69a1.87,1.87,0,0,1,3.13-.74l6.18,7.07c6,6.89,13.27,5.9,13.27,5.9"/><line class="cls-13" x1="208.97" y1="192.36" x2="212.42" y2="204.79"/><path class="cls-13" d="M193,192.36,191,189h0c-3.24-5.43-6.71-11.24-10.2-17.12-12.63-21.2-25.69-43.18-29.83-50.41-2.76-4.82-1.1-11.33,1.09-10L201,180.87"/><path class="cls-13" d="M208.57,218.44,201,205.74"/><path class="cls-13" d="M262,263.65c8-4.49,9-16.92,2.53-27.31s-18.14-15-26-10.33-9,16.92-2.53,27.31S250.59,270,262,263.65Z"/><path class="cls-12" d="M193.39,218.44a5.86,5.86,0,0,0-.24-1.43l-3.61-12.22-.5-1.69a1.87,1.87,0,0,0-3.13-.74l-6.18,7.07c-6,6.89-13.27,5.9-13.27,5.9"/><path class="cls-12" d="M166.46,215.33c-13.09-.37-25.68,1.29-33.56,12-9.13,12.44-12,28.94-2.07,38.88a21.25,21.25,0,0,0,1.78,1.6c7.79,6.32,14.5,7.78,20.13,6.67,10-2,16.66-12.15,19.91-17.58,5.26-8.79,20-35.45,20-35.45a5.58,5.58,0,0,0,.72-3"/><path class="cls-13" d="M193.39,218.44h0l7.59-12.7,8-13.38h0l2-3.37h0l10.2-17.11c12.63-21.2,25.67-43.17,29.82-50.39a11.29,11.29,0,0,0,1.11-8.18c-.44-1.54-1.27-2.4-2.2-1.84L201,180.87h0l-7.92,11.24-.07.25-3.45,12.43"/><path class="cls-13" d="M166,253.32c-6.49,10.39-14.59,16.72-26,10.33-8-4.49-9-16.92-2.53-27.31s18.14-15,26-10.33S172.46,242.93,166,253.32Z"/><path class="cls-12" d="M122.73,137c-1,4.53-.73,7.15-.15,8.69a6.12,6.12,0,0,0,.34.76c1.73,3.18,7.74,1.08,8.31-2.06"/><path class="cls-12" d="M135,129.34l0-.07c-.74-2.65-6.62-3.34-10,1.2h0a10.33,10.33,0,0,0-1.1,1.88"/><path class="cls-12" d="M124.91,130.42c-8.94-2.12-11.16,12.24-9.33,16,1,2,2.63,2.66,4.12,2.16a4.8,4.8,0,0,0,2.77-2.93"/><path class="cls-12" d="M143.33,156.44c3.4-3.41,3.56-7.72,2.86-11.38a10.71,10.71,0,0,0-2.11-4.53l-.14-.18a7.34,7.34,0,0,0-6.82-2.94c-3.16.57-5.25,3.68-5.89,6.93a8.6,8.6,0,0,0,.24,5.31c1.57,3.47,5.33,1.75,7.35-.31"/><path class="cls-12" d="M142.24,156.63a3.64,3.64,0,0,1,1,0,1.8,1.8,0,0,1,.43.11c1.66.61,1.25,2.89-.18,3.87a2.55,2.55,0,0,1-1.09.43l-17.95,3.06-.17,0c-3.64.52-4.43-4.23-1.32-4.53"/><path class="cls-12" d="M144.44,140.26c1.13-3.86.55-9.82-2.88-12a4.86,4.86,0,0,0-6.57,1c-1.38,1.54-2.47,4.06-2.9,7.63"/><path class="cls-12" d="M119.7,148.6c-2.61,4.93,0,10.64,3.31,11l11.16-1.79"/><path class="cls-12" d="M124.33,164.18h0v0c.3,1.35,13.06,56.71,66.26,25"/><path class="cls-12" d="M143.54,160.62h0c.06.3,6.32,31.13,37.26,11.28"/><path class="cls-12" d="M279.3,137c1,4.52.73,7.14.15,8.68a5.05,5.05,0,0,1-.35.77c-1.72,3.18-7.73,1.08-8.31-2.06"/><path class="cls-12" d="M267,129.34s0-.05,0-.07c.75-2.65,6.63-3.34,10,1.2h0a10,10,0,0,1,1.11,1.88"/><path class="cls-12" d="M277.11,130.42c8.95-2.12,11.17,12.24,9.34,16-1,2-2.63,2.66-4.13,2.16a4.84,4.84,0,0,1-2.76-2.93"/><path class="cls-12" d="M258.7,156.44c-3.41-3.41-3.56-7.72-2.86-11.38a10.59,10.59,0,0,1,2.1-4.52c1.74-2.2,4.28-3.62,7-3.13,3.15.57,5.25,3.68,5.88,6.93a8.6,8.6,0,0,1-.23,5.31c-1.58,3.47-5.33,1.76-7.35-.31"/><path class="cls-12" d="M259.79,156.63a4.21,4.21,0,0,0-.86,0l-.21,0c-2.12.37-1.77,2.93-.23,4a2.51,2.51,0,0,0,1.08.43l18,3.06.23,0c3.59.45,4.35-4.24,1.26-4.54"/><path class="cls-12" d="M257.94,140.54c-1.13-3.86-.9-10.1,2.52-12.28a4.87,4.87,0,0,1,6.57,1c1.39,1.54,2.48,4.06,2.91,7.63"/><path class="cls-12" d="M282.32,148.6c2.62,4.93.05,10.64-3.3,11l-11.16-1.79"/><path class="cls-12" d="M277.76,164.18s-12.48,57.13-66.33,25.08"/><path class="cls-12" d="M258.49,160.62h0c-.06.31-6.33,31.13-37.26,11.28"/><path class="cls-12" d="M127.76,315.73c3.66,2.64,11.3-7.09,8.17-12.54h0a5.37,5.37,0,0,0-1.49-1.65L116.69,286.1l-.54-.46h0"/><path class="cls-12" d="M114.94,288.31a12.48,12.48,0,0,0,1.11-2.7v0c2.92-10.47-6.43-26-16-25.45-8.57.48-14.3,12.62-11.87,21.17l.81.7"/><path class="cls-12" d="M89,282a2.31,2.31,0,0,0-3.45.46l-.2.28a2.9,2.9,0,0,0,.41,3.82l39.18,34.08a2.32,2.32,0,0,0,3.47-.46l.2-.28a2.92,2.92,0,0,0-.41-3.82l-.41-.36L89,282Z"/><polyline class="cls-12" points="116.69 286.11 127 271.61 130.83 266.22"/><polyline class="cls-12" points="136.02 303.14 136.02 303.14 146.08 285.9 152.74 274.49"/><polyline class="cls-12" points="127 271.61 136.18 278.49 146.08 285.9"/><line class="cls-12" x1="130.83" y1="274.49" x2="128.19" y2="278.76"/><polyline class="cls-12" points="136.19 278.47 136.18 278.49 133.56 282.73"/><line class="cls-12" x1="141.4" y1="282.73" x2="138.76" y2="286.99"/><path class="cls-12" d="M274.5,315.73c-3.66,2.64-11.3-7.09-8.17-12.54a5.45,5.45,0,0,1,1.5-1.66l17.74-15.43.53-.46"/><path class="cls-12" d="M287.32,288.31a12.4,12.4,0,0,1-1.11-2.69c-2.94-10.48,6.42-26,16-25.48,8.57.48,14.3,12.62,11.87,21.16l-.83.72"/><path class="cls-12" d="M313.27,282a2.32,2.32,0,0,1,3.47.45l.2.28a2.92,2.92,0,0,1-.41,3.82l-39.19,34.08a2.31,2.31,0,0,1-3.46-.46l-.2-.28a2.92,2.92,0,0,1,.41-3.82l.41-.36Z"/><polyline class="cls-12" points="285.57 286.11 275.26 271.61 271.43 266.22"/><polyline class="cls-12" points="266.24 303.14 256.18 285.9 249.55 274.55 249.52 274.49"/><polyline class="cls-12" points="275.26 271.61 266.08 278.49 256.18 285.9"/><line class="cls-12" x1="271.43" y1="274.49" x2="274.07" y2="278.76"/><polyline class="cls-12" points="266.06 278.46 266.08 278.49 268.7 282.73"/><line class="cls-12" x1="260.86" y1="282.73" x2="263.5" y2="286.99"/><path class="cls-12" d="M215.16,121.71c-3.38-.71-6.18.73-8.73,2.51a12.4,12.4,0,0,1-8,2.26c-2.36-.24-4.38-1.58-6.71-1.8-5.54-.54-7.38,6.38-5.27,10.48,3.33,6.46,11.21,9.07,18,8,10.06-1.52,13.69-5.69,15.22-9.49S221.3,123,215.16,121.71Z"/><path class="cls-12" d="M191.4,132s10,8,23.91-2.08"/><path class="cls-12" d="M203.39,192.72a2.64,2.64,0,1,1-2.64-2.64A2.64,2.64,0,0,1,203.39,192.72Z"/><polyline class="cls-12" points="252.11 113.31 252.11 113.31 207.69 180.63"/><line class="cls-12" x1="149.99" y1="113.3" x2="194.4" y2="180.63"/><path class="cls-13" d="M115.68,95a.15.15,0,0,0,0,.06c-.1.54-.75,5.22,3.28,6.84l-5.89,3.81c-4.8-2.36-3.85-8.27-3.85-8.27L115.57,95h0"/><path class="cls-13" d="M299.25,209.61h0v0c-.09.55-.75,5.22,3.28,6.84l-5.89,3.81c-4.81-2.36-3.85-8.27-3.85-8.27l6.36-2.43"/><path class="cls-13" d="M199.74,240.79h0a.06.06,0,0,0,0,0h0c-.09.55-.75,5.23,3.28,6.84l-5.89,3.81c-4.8-2.35-3.84-8.27-3.84-8.27l6.36-2.43"/><path class="cls-13" d="M184.72,288.51h0l-.06-.05c-.58-.45-4.25-3.09-7.53-.42l-.47-7c4.39-3.06,9.09.65,9.09.65l-1,6.74"/><path class="cls-13" d="M126.92,200.24l0,0c-.28.33-3.33,4.11-.61,7.58l-7,.34c-3-4.45.82-9.08.82-9.08l6.73,1.09"/><path class="cls-13" d="M99.19,234.47h0l.14.14a7.35,7.35,0,0,0,4.55,1.95,5.05,5.05,0,0,0,2.83-.88l-.2,7c-4.67,2.62-9-1.52-9-1.52l1.6-6.62h0"/><path class="cls-13" d="M209.49,261.67l0,0,.13.13h0c.74.67,4,3.31,7.38,1.06l-.2,7c-4.67,2.62-9-1.53-9-1.53l1.6-6.61h0"/><path class="cls-13" d="M296.87,175.28h0c0,.24.9,5.21-3.28,6.89l5.89,3.81c4.81-2.36,3.85-8.27,3.85-8.27L297,175.28"/><path class="cls-13" d="M238.57,89h0c.19.2,3.69,3.78,1.22,7.52l7-.21c2.61-4.67-1.54-9-1.54-9l-6.62,1.62"/><path class="cls-13" d="M97.53,122.54v0h0v0c-.07.55-.53,5.25,3.57,6.7l-5.73,4.06c-4.9-2.16-4.19-8.11-4.19-8.11l6.25-2.7"/><path class="cls-13" d="M299.92,128.21v0c-.07.55-.53,5.25,3.57,6.7L297.75,139c-4.9-2.15-4.19-8.1-4.19-8.1l6.25-2.7"/><path class="cls-13" d="M160.92,94.54c-.45-1.82-1-3.61-2.85-4.38-1.14-.48-2.32-.22-3.47-.82-1.54-.79-2.21-2.32-2.65-4l-7,3.88c.45,1.68,1.12,3.21,2.65,4,1.15.59,2.33.33,3.48.81,1.87.77,2.4,2.57,2.84,4.38Z"/><path class="cls-13" d="M264.61,112.34c.44-1.82,1-3.61,2.84-4.39,1.15-.47,2.32-.21,3.47-.81,1.54-.79,2.21-2.32,2.66-4l7,3.89c-.45,1.68-1.11,3.21-2.65,4-1.15.59-2.33.33-3.47.8-1.87.78-2.4,2.58-2.85,4.39Z"/><path class="cls-13" d="M99.49,170.1c-1.16-1.46-2.39-2.87-4.42-2.8-1.23,0-2.19.77-3.49.71-1.73-.09-3-1.2-4.08-2.54l-4.73,6.43c1.11,1.34,2.36,2.45,4.09,2.54,1.29.06,2.25-.66,3.49-.71,2-.07,3.25,1.34,4.41,2.8Z"/><path class="cls-13" d="M98,200c-1.76.64-3.49,1.36-4.06,3.3-.35,1.19,0,2.33-.44,3.54-.62,1.61-2.07,2.44-3.7,3.06l4.6,6.52c1.63-.62,3.08-1.45,3.7-3.06.47-1.21.09-2.35.44-3.54.58-1.94,2.3-2.66,4.06-3.29Z"/><path class="cls-13" d="M315.21,243.79c-1.16-1.47-2.39-2.88-4.41-2.81-1.24.05-2.2.77-3.49.71-1.73-.08-3-1.19-4.08-2.54l-4.73,6.43c1.11,1.35,2.35,2.46,4.08,2.54,1.3.07,2.26-.66,3.49-.71,2-.07,3.26,1.34,4.42,2.81Z"/><path class="cls-13" d="M164.06,309.78c.65-1.75,1.23-3.53.12-5.23-.67-1-1.79-1.49-2.4-2.63-.82-1.52-.51-3.16.07-4.81l-7.95-.73c-.58,1.64-.89,3.28-.07,4.81.61,1.14,1.73,1.59,2.41,2.62,1.1,1.7.53,3.48-.13,5.23Z"/><path class="cls-13" d="M262,208.48c.44-1.82,1-3.61,2.85-4.39,1.14-.48,2.32-.21,3.47-.81,1.53-.79,2.2-2.32,2.65-4l7,3.88c-.44,1.69-1.11,3.22-2.65,4-1.15.6-2.33.34-3.47.81-1.87.78-2.4,2.57-2.85,4.39Z"/><path class="cls-13" d="M228.88,310.45c-1.87-.13-3.73-.35-4.81-2.07-.66-1-.6-2.24-1.38-3.28-1.05-1.38-2.67-1.78-4.4-1.94l2.64-7.53c1.74.16,3.36.56,4.4,1.94.79,1,.73,2.24,1.39,3.29,1.08,1.71,2.94,1.93,4.8,2.06Z"/><ellipse cx="200.66" cy="338.38" rx="63.17" ry="6.54"/><path class="cls-14" d="M201.56,104.45a12.74,12.74,0,0,0-2-5.48,8.4,8.4,0,0,1,3.87-3.2,6.33,6.33,0,0,1,2.29-.42c4.59,0,8.32,5,8.32,11.07s-3.73,11.07-8.32,11.07a7.56,7.56,0,0,1-6.16-3.62,13.23,13.23,0,0,0,2.17-7.45A14.16,14.16,0,0,0,201.56,104.45Z"/><path class="cls-14" d="M199.53,113.87a13.87,13.87,0,0,1,0-14.9,12.74,12.74,0,0,1,2,5.48,14.16,14.16,0,0,1,.14,2A13.23,13.23,0,0,1,199.53,113.87Z"/><path class="cls-14" d="M199.53,99a13.87,13.87,0,0,0,0,14.9,7.59,7.59,0,0,1-6.16,3.62c-4.6,0-8.32-4.95-8.32-11.07s3.72-11.07,8.32-11.07A7.56,7.56,0,0,1,199.53,99Z"/><path class="cls-13" d="M199.53,113.87a7.59,7.59,0,0,1-6.16,3.62c-4.6,0-8.32-4.95-8.32-11.07s3.72-11.07,8.32-11.07A7.56,7.56,0,0,1,199.53,99"/><path class="cls-13" d="M197.37,107.32s-2.62-3.73-9-2.82"/><path class="cls-13" d="M210.42,91.26s4.67.72,7.46,6.86"/><path class="cls-13" d="M197.74,91.92a9.84,9.84,0,0,1,5.66,3.85"/><path class="cls-13" d="M203.4,95.77a6.33,6.33,0,0,1,2.29-.42c4.59,0,8.32,5,8.32,11.07s-3.73,11.07-8.32,11.07a7.56,7.56,0,0,1-6.16-3.62,13.87,13.87,0,0,1,0-14.9A8.4,8.4,0,0,1,203.4,95.77Z"/><path class="cls-13" d="M210.19,107.32s-2.52-3.58-8.63-2.87l-.37,0"/></svg>